# Tiled2Unity generated file. Do not modify by hand.
# Wavefront file for 'Mapa_mesh_0108.obj'

# Vertices (Count = 20)
v -13 -5 0
v -14 -5 0
v -14 -4 0
v -13 -4 0
v -2 -9 0
v -3 -9 0
v -3 -8 0
v -2 -8 0
v -8 -9 0
v -9 -9 0
v -9 -8 0
v -8 -8 0
v -11 -9 0
v -12 -9 0
v -12 -8 0
v -11 -8 0
v -4 -10 0
v -5 -10 0
v -5 -9 0
v -4 -9 0

# Texture cooridinates (Count = 15)
vt 0 0.9285714
vt 0.0625 0.9285714
vt 0.0625 1
vt 0 1
vt 0 0.2142857
vt 0.0625 0.2142857
vt 0.0625 0.2857143
vt 0 0.2857143
vt 0.125 0.9285714
vt 0.1875 0.9285714
vt 0.1875 1
vt 0.125 1
vt 0.125 0.2857143
vt 0.125 0.3571429
vt 0.0625 0.3571429

# Normal
vn 0 0 -1

# Mesh description
g Mapa_mesh_0108

# Faces
f 1/1/1 2/2/1 3/3/1 4/4/1
f 5/5/1 6/6/1 7/7/1 8/8/1
f 9/9/1 10/10/1 11/11/1 12/12/1
f 13/7/1 14/13/1 15/14/1 16/15/1
f 17/7/1 18/13/1 19/14/1 20/15/1

