# Tiled2Unity generated file. Do not modify by hand.
# Wavefront file for 'Mapa_mesh_0006.obj'

# Vertices (Count = 800)
v -5 -1 0
v -6 -1 0
v -6 0 0
v -5 0 0
v -6 -1 0
v -7 -1 0
v -7 0 0
v -6 0 0
v -7 -1 0
v -8 -1 0
v -8 0 0
v -7 0 0
v -8 -1 0
v -9 -1 0
v -9 0 0
v -8 0 0
v -9 -1 0
v -10 -1 0
v -10 0 0
v -9 0 0
v -10 -1 0
v -11 -1 0
v -11 0 0
v -10 0 0
v -11 -1 0
v -12 -1 0
v -12 0 0
v -11 0 0
v -12 -1 0
v -13 -1 0
v -13 0 0
v -12 0 0
v -13 -1 0
v -14 -1 0
v -14 0 0
v -13 0 0
v -14 -1 0
v -15 -1 0
v -15 0 0
v -14 0 0
v -15 -1 0
v -16 -1 0
v -16 0 0
v -15 0 0
v -6 -2 0
v -7 -2 0
v -7 -1 0
v -6 -1 0
v -7 -2 0
v -8 -2 0
v -8 -1 0
v -7 -1 0
v -8 -2 0
v -9 -2 0
v -9 -1 0
v -8 -1 0
v -9 -2 0
v -10 -2 0
v -10 -1 0
v -9 -1 0
v -10 -2 0
v -11 -2 0
v -11 -1 0
v -10 -1 0
v -11 -2 0
v -12 -2 0
v -12 -1 0
v -11 -1 0
v -12 -2 0
v -13 -2 0
v -13 -1 0
v -12 -1 0
v -13 -2 0
v -14 -2 0
v -14 -1 0
v -13 -1 0
v -14 -2 0
v -15 -2 0
v -15 -1 0
v -14 -1 0
v -15 -2 0
v -16 -2 0
v -16 -1 0
v -15 -1 0
v -6 -3 0
v -7 -3 0
v -7 -2 0
v -6 -2 0
v -7 -3 0
v -8 -3 0
v -8 -2 0
v -7 -2 0
v -8 -3 0
v -9 -3 0
v -9 -2 0
v -8 -2 0
v -9 -3 0
v -10 -3 0
v -10 -2 0
v -9 -2 0
v -10 -3 0
v -11 -3 0
v -11 -2 0
v -10 -2 0
v -11 -3 0
v -12 -3 0
v -12 -2 0
v -11 -2 0
v -12 -3 0
v -13 -3 0
v -13 -2 0
v -12 -2 0
v -13 -3 0
v -14 -3 0
v -14 -2 0
v -13 -2 0
v -14 -3 0
v -15 -3 0
v -15 -2 0
v -14 -2 0
v -15 -3 0
v -16 -3 0
v -16 -2 0
v -15 -2 0
v -8 -4 0
v -9 -4 0
v -9 -3 0
v -8 -3 0
v -9 -4 0
v -10 -4 0
v -10 -3 0
v -9 -3 0
v -10 -4 0
v -11 -4 0
v -11 -3 0
v -10 -3 0
v -11 -4 0
v -12 -4 0
v -12 -3 0
v -11 -3 0
v -12 -4 0
v -13 -4 0
v -13 -3 0
v -12 -3 0
v -13 -4 0
v -14 -4 0
v -14 -3 0
v -13 -3 0
v -14 -4 0
v -15 -4 0
v -15 -3 0
v -14 -3 0
v -15 -4 0
v -16 -4 0
v -16 -3 0
v -15 -3 0
v -8 -5 0
v -9 -5 0
v -9 -4 0
v -8 -4 0
v -9 -5 0
v -10 -5 0
v -10 -4 0
v -9 -4 0
v -10 -5 0
v -11 -5 0
v -11 -4 0
v -10 -4 0
v -11 -5 0
v -12 -5 0
v -12 -4 0
v -11 -4 0
v -12 -5 0
v -13 -5 0
v -13 -4 0
v -12 -4 0
v -13 -5 0
v -14 -5 0
v -14 -4 0
v -13 -4 0
v -14 -5 0
v -15 -5 0
v -15 -4 0
v -14 -4 0
v -15 -5 0
v -16 -5 0
v -16 -4 0
v -15 -4 0
v -7 -6 0
v -8 -6 0
v -8 -5 0
v -7 -5 0
v -8 -6 0
v -9 -6 0
v -9 -5 0
v -8 -5 0
v -9 -6 0
v -10 -6 0
v -10 -5 0
v -9 -5 0
v -10 -6 0
v -11 -6 0
v -11 -5 0
v -10 -5 0
v -11 -6 0
v -12 -6 0
v -12 -5 0
v -11 -5 0
v -12 -6 0
v -13 -6 0
v -13 -5 0
v -12 -5 0
v -13 -6 0
v -14 -6 0
v -14 -5 0
v -13 -5 0
v -14 -6 0
v -15 -6 0
v -15 -5 0
v -14 -5 0
v -15 -6 0
v -16 -6 0
v -16 -5 0
v -15 -5 0
v -4 -7 0
v -5 -7 0
v -5 -6 0
v -4 -6 0
v -5 -7 0
v -6 -7 0
v -6 -6 0
v -5 -6 0
v -6 -7 0
v -7 -7 0
v -7 -6 0
v -6 -6 0
v -7 -7 0
v -8 -7 0
v -8 -6 0
v -7 -6 0
v -8 -7 0
v -9 -7 0
v -9 -6 0
v -8 -6 0
v -9 -7 0
v -10 -7 0
v -10 -6 0
v -9 -6 0
v -10 -7 0
v -11 -7 0
v -11 -6 0
v -10 -6 0
v -11 -7 0
v -12 -7 0
v -12 -6 0
v -11 -6 0
v -12 -7 0
v -13 -7 0
v -13 -6 0
v -12 -6 0
v -13 -7 0
v -14 -7 0
v -14 -6 0
v -13 -6 0
v -14 -7 0
v -15 -7 0
v -15 -6 0
v -14 -6 0
v -15 -7 0
v -16 -7 0
v -16 -6 0
v -15 -6 0
v -2 -8 0
v -3 -8 0
v -3 -7 0
v -2 -7 0
v -3 -8 0
v -4 -8 0
v -4 -7 0
v -3 -7 0
v -4 -8 0
v -5 -8 0
v -5 -7 0
v -4 -7 0
v -5 -8 0
v -6 -8 0
v -6 -7 0
v -5 -7 0
v -6 -8 0
v -7 -8 0
v -7 -7 0
v -6 -7 0
v -7 -8 0
v -8 -8 0
v -8 -7 0
v -7 -7 0
v -8 -8 0
v -9 -8 0
v -9 -7 0
v -8 -7 0
v -9 -8 0
v -10 -8 0
v -10 -7 0
v -9 -7 0
v -10 -8 0
v -11 -8 0
v -11 -7 0
v -10 -7 0
v -11 -8 0
v -12 -8 0
v -12 -7 0
v -11 -7 0
v -12 -8 0
v -13 -8 0
v -13 -7 0
v -12 -7 0
v -13 -8 0
v -14 -8 0
v -14 -7 0
v -13 -7 0
v -14 -8 0
v -15 -8 0
v -15 -7 0
v -14 -7 0
v 0 -9 0
v -1 -9 0
v -1 -8 0
v 0 -8 0
v -1 -9 0
v -2 -9 0
v -2 -8 0
v -1 -8 0
v -2 -9 0
v -3 -9 0
v -3 -8 0
v -2 -8 0
v -3 -9 0
v -4 -9 0
v -4 -8 0
v -3 -8 0
v -4 -9 0
v -5 -9 0
v -5 -8 0
v -4 -8 0
v -5 -9 0
v -6 -9 0
v -6 -8 0
v -5 -8 0
v -6 -9 0
v -7 -9 0
v -7 -8 0
v -6 -8 0
v -7 -9 0
v -8 -9 0
v -8 -8 0
v -7 -8 0
v -8 -9 0
v -9 -9 0
v -9 -8 0
v -8 -8 0
v -9 -9 0
v -10 -9 0
v -10 -8 0
v -9 -8 0
v -10 -9 0
v -11 -9 0
v -11 -8 0
v -10 -8 0
v -11 -9 0
v -12 -9 0
v -12 -8 0
v -11 -8 0
v -12 -9 0
v -13 -9 0
v -13 -8 0
v -12 -8 0
v -13 -9 0
v -14 -9 0
v -14 -8 0
v -13 -8 0
v -14 -9 0
v -15 -9 0
v -15 -8 0
v -14 -8 0
v 0 -10 0
v -1 -10 0
v -1 -9 0
v 0 -9 0
v -1 -10 0
v -2 -10 0
v -2 -9 0
v -1 -9 0
v -2 -10 0
v -3 -10 0
v -3 -9 0
v -2 -9 0
v -3 -10 0
v -4 -10 0
v -4 -9 0
v -3 -9 0
v -4 -10 0
v -5 -10 0
v -5 -9 0
v -4 -9 0
v -5 -10 0
v -6 -10 0
v -6 -9 0
v -5 -9 0
v -6 -10 0
v -7 -10 0
v -7 -9 0
v -6 -9 0
v -7 -10 0
v -8 -10 0
v -8 -9 0
v -7 -9 0
v -8 -10 0
v -9 -10 0
v -9 -9 0
v -8 -9 0
v -9 -10 0
v -10 -10 0
v -10 -9 0
v -9 -9 0
v -10 -10 0
v -11 -10 0
v -11 -9 0
v -10 -9 0
v -11 -10 0
v -12 -10 0
v -12 -9 0
v -11 -9 0
v -12 -10 0
v -13 -10 0
v -13 -9 0
v -12 -9 0
v -13 -10 0
v -14 -10 0
v -14 -9 0
v -13 -9 0
v -14 -10 0
v -15 -10 0
v -15 -9 0
v -14 -9 0
v 0 -11 0
v -1 -11 0
v -1 -10 0
v 0 -10 0
v -1 -11 0
v -2 -11 0
v -2 -10 0
v -1 -10 0
v -2 -11 0
v -3 -11 0
v -3 -10 0
v -2 -10 0
v -3 -11 0
v -4 -11 0
v -4 -10 0
v -3 -10 0
v -4 -11 0
v -5 -11 0
v -5 -10 0
v -4 -10 0
v -5 -11 0
v -6 -11 0
v -6 -10 0
v -5 -10 0
v -6 -11 0
v -7 -11 0
v -7 -10 0
v -6 -10 0
v -7 -11 0
v -8 -11 0
v -8 -10 0
v -7 -10 0
v -8 -11 0
v -9 -11 0
v -9 -10 0
v -8 -10 0
v -9 -11 0
v -10 -11 0
v -10 -10 0
v -9 -10 0
v -10 -11 0
v -11 -11 0
v -11 -10 0
v -10 -10 0
v -11 -11 0
v -12 -11 0
v -12 -10 0
v -11 -10 0
v -12 -11 0
v -13 -11 0
v -13 -10 0
v -12 -10 0
v -13 -11 0
v -14 -11 0
v -14 -10 0
v -13 -10 0
v -14 -11 0
v -15 -11 0
v -15 -10 0
v -14 -10 0
v 0 -12 0
v -1 -12 0
v -1 -11 0
v 0 -11 0
v -1 -12 0
v -2 -12 0
v -2 -11 0
v -1 -11 0
v -2 -12 0
v -3 -12 0
v -3 -11 0
v -2 -11 0
v -3 -12 0
v -4 -12 0
v -4 -11 0
v -3 -11 0
v -4 -12 0
v -5 -12 0
v -5 -11 0
v -4 -11 0
v -5 -12 0
v -6 -12 0
v -6 -11 0
v -5 -11 0
v -6 -12 0
v -7 -12 0
v -7 -11 0
v -6 -11 0
v -7 -12 0
v -8 -12 0
v -8 -11 0
v -7 -11 0
v -8 -12 0
v -9 -12 0
v -9 -11 0
v -8 -11 0
v -9 -12 0
v -10 -12 0
v -10 -11 0
v -9 -11 0
v -10 -12 0
v -11 -12 0
v -11 -11 0
v -10 -11 0
v -11 -12 0
v -12 -12 0
v -12 -11 0
v -11 -11 0
v -12 -12 0
v -13 -12 0
v -13 -11 0
v -12 -11 0
v -13 -12 0
v -14 -12 0
v -14 -11 0
v -13 -11 0
v 0 -13 0
v -1 -13 0
v -1 -12 0
v 0 -12 0
v -1 -13 0
v -2 -13 0
v -2 -12 0
v -1 -12 0
v -2 -13 0
v -3 -13 0
v -3 -12 0
v -2 -12 0
v -3 -13 0
v -4 -13 0
v -4 -12 0
v -3 -12 0
v -4 -13 0
v -5 -13 0
v -5 -12 0
v -4 -12 0
v -5 -13 0
v -6 -13 0
v -6 -12 0
v -5 -12 0
v -6 -13 0
v -7 -13 0
v -7 -12 0
v -6 -12 0
v -7 -13 0
v -8 -13 0
v -8 -12 0
v -7 -12 0
v -8 -13 0
v -9 -13 0
v -9 -12 0
v -8 -12 0
v -9 -13 0
v -10 -13 0
v -10 -12 0
v -9 -12 0
v -10 -13 0
v -11 -13 0
v -11 -12 0
v -10 -12 0
v -11 -13 0
v -12 -13 0
v -12 -12 0
v -11 -12 0
v -12 -13 0
v -13 -13 0
v -13 -12 0
v -12 -12 0
v -13 -13 0
v -14 -13 0
v -14 -12 0
v -13 -12 0
v 0 -14 0
v -1 -14 0
v -1 -13 0
v 0 -13 0
v -1 -14 0
v -2 -14 0
v -2 -13 0
v -1 -13 0
v -2 -14 0
v -3 -14 0
v -3 -13 0
v -2 -13 0
v -3 -14 0
v -4 -14 0
v -4 -13 0
v -3 -13 0
v -4 -14 0
v -5 -14 0
v -5 -13 0
v -4 -13 0
v -5 -14 0
v -6 -14 0
v -6 -13 0
v -5 -13 0
v -6 -14 0
v -7 -14 0
v -7 -13 0
v -6 -13 0
v -7 -14 0
v -8 -14 0
v -8 -13 0
v -7 -13 0
v -8 -14 0
v -9 -14 0
v -9 -13 0
v -8 -13 0
v -9 -14 0
v -10 -14 0
v -10 -13 0
v -9 -13 0
v -10 -14 0
v -11 -14 0
v -11 -13 0
v -10 -13 0
v -11 -14 0
v -12 -14 0
v -12 -13 0
v -11 -13 0
v -12 -14 0
v -13 -14 0
v -13 -13 0
v -12 -13 0
v -13 -14 0
v -14 -14 0
v -14 -13 0
v -13 -13 0
v 0 -15 0
v -1 -15 0
v -1 -14 0
v 0 -14 0
v -1 -15 0
v -2 -15 0
v -2 -14 0
v -1 -14 0
v -2 -15 0
v -3 -15 0
v -3 -14 0
v -2 -14 0
v -3 -15 0
v -4 -15 0
v -4 -14 0
v -3 -14 0
v -4 -15 0
v -5 -15 0
v -5 -14 0
v -4 -14 0
v -5 -15 0
v -6 -15 0
v -6 -14 0
v -5 -14 0
v -6 -15 0
v -7 -15 0
v -7 -14 0
v -6 -14 0
v -7 -15 0
v -8 -15 0
v -8 -14 0
v -7 -14 0
v -8 -15 0
v -9 -15 0
v -9 -14 0
v -8 -14 0
v -9 -15 0
v -10 -15 0
v -10 -14 0
v -9 -14 0
v -10 -15 0
v -11 -15 0
v -11 -14 0
v -10 -14 0
v -11 -15 0
v -12 -15 0
v -12 -14 0
v -11 -14 0
v -12 -15 0
v -13 -15 0
v -13 -14 0
v -12 -14 0
v -13 -15 0
v -14 -15 0
v -14 -14 0
v -13 -14 0
v -14 -15 0
v -15 -15 0
v -15 -14 0
v -14 -14 0
v -15 -15 0
v -16 -15 0
v -16 -14 0
v -15 -14 0
v 0 -16 0
v -1 -16 0
v -1 -15 0
v 0 -15 0
v -1 -16 0
v -2 -16 0
v -2 -15 0
v -1 -15 0
v -2 -16 0
v -3 -16 0
v -3 -15 0
v -2 -15 0
v -3 -16 0
v -4 -16 0
v -4 -15 0
v -3 -15 0
v -4 -16 0
v -5 -16 0
v -5 -15 0
v -4 -15 0
v -5 -16 0
v -6 -16 0
v -6 -15 0
v -5 -15 0
v -6 -16 0
v -7 -16 0
v -7 -15 0
v -6 -15 0
v -7 -16 0
v -8 -16 0
v -8 -15 0
v -7 -15 0
v -8 -16 0
v -9 -16 0
v -9 -15 0
v -8 -15 0
v -9 -16 0
v -10 -16 0
v -10 -15 0
v -9 -15 0
v -10 -16 0
v -11 -16 0
v -11 -15 0
v -10 -15 0
v -11 -16 0
v -12 -16 0
v -12 -15 0
v -11 -15 0
v -12 -16 0
v -13 -16 0
v -13 -15 0
v -12 -15 0
v -13 -16 0
v -14 -16 0
v -14 -15 0
v -13 -15 0
v -14 -16 0
v -15 -16 0
v -15 -15 0
v -14 -15 0
v -15 -16 0
v -16 -16 0
v -16 -15 0
v -15 -15 0

# Texture cooridinates (Count = 12)
vt 0.625 0.7142857
vt 0.6875 0.7142857
vt 0.6875 0.7857143
vt 0.625 0.7857143
vt 0.8125 0.9285714
vt 0.875 0.9285714
vt 0.875 1
vt 0.8125 1
vt 0.75 0.7857143
vt 0.75 0.8571429
vt 0.6875 0.8571429
vt 0.625 0.8571429

# Normal
vn 0 0 -1

# Mesh description
g Mapa_mesh_0006

# Faces
f 1/1/1 2/2/1 3/3/1 4/4/1
f 5/5/1 6/6/1 7/7/1 8/8/1
f 9/3/1 10/9/1 11/10/1 12/11/1
f 13/3/1 14/9/1 15/10/1 16/11/1
f 17/3/1 18/9/1 19/10/1 20/11/1
f 21/3/1 22/9/1 23/10/1 24/11/1
f 25/3/1 26/9/1 27/10/1 28/11/1
f 29/3/1 30/9/1 31/10/1 32/11/1
f 33/3/1 34/9/1 35/10/1 36/11/1
f 37/3/1 38/9/1 39/10/1 40/11/1
f 41/3/1 42/9/1 43/10/1 44/11/1
f 45/4/1 46/3/1 47/11/1 48/12/1
f 49/3/1 50/9/1 51/10/1 52/11/1
f 53/3/1 54/9/1 55/10/1 56/11/1
f 57/3/1 58/9/1 59/10/1 60/11/1
f 61/3/1 62/9/1 63/10/1 64/11/1
f 65/3/1 66/9/1 67/10/1 68/11/1
f 69/3/1 70/9/1 71/10/1 72/11/1
f 73/3/1 74/9/1 75/10/1 76/11/1
f 77/3/1 78/9/1 79/10/1 80/11/1
f 81/3/1 82/9/1 83/10/1 84/11/1
f 85/4/1 86/3/1 87/11/1 88/12/1
f 89/3/1 90/9/1 91/10/1 92/11/1
f 93/3/1 94/9/1 95/10/1 96/11/1
f 97/3/1 98/9/1 99/10/1 100/11/1
f 101/3/1 102/9/1 103/10/1 104/11/1
f 105/3/1 106/9/1 107/10/1 108/11/1
f 109/3/1 110/9/1 111/10/1 112/11/1
f 113/3/1 114/9/1 115/10/1 116/11/1
f 117/3/1 118/9/1 119/10/1 120/11/1
f 121/3/1 122/9/1 123/10/1 124/11/1
f 125/3/1 126/9/1 127/10/1 128/11/1
f 129/3/1 130/9/1 131/10/1 132/11/1
f 133/3/1 134/9/1 135/10/1 136/11/1
f 137/3/1 138/9/1 139/10/1 140/11/1
f 141/3/1 142/9/1 143/10/1 144/11/1
f 145/3/1 146/9/1 147/10/1 148/11/1
f 149/3/1 150/9/1 151/10/1 152/11/1
f 153/3/1 154/9/1 155/10/1 156/11/1
f 157/3/1 158/9/1 159/10/1 160/11/1
f 161/3/1 162/9/1 163/10/1 164/11/1
f 165/3/1 166/9/1 167/10/1 168/11/1
f 169/3/1 170/9/1 171/10/1 172/11/1
f 173/3/1 174/9/1 175/10/1 176/11/1
f 177/3/1 178/9/1 179/10/1 180/11/1
f 181/3/1 182/9/1 183/10/1 184/11/1
f 185/3/1 186/9/1 187/10/1 188/11/1
f 189/3/1 190/9/1 191/10/1 192/11/1
f 193/3/1 194/9/1 195/10/1 196/11/1
f 197/3/1 198/9/1 199/10/1 200/11/1
f 201/3/1 202/9/1 203/10/1 204/11/1
f 205/3/1 206/9/1 207/10/1 208/11/1
f 209/3/1 210/9/1 211/10/1 212/11/1
f 213/3/1 214/9/1 215/10/1 216/11/1
f 217/3/1 218/9/1 219/10/1 220/11/1
f 221/3/1 222/9/1 223/10/1 224/11/1
f 225/3/1 226/9/1 227/10/1 228/11/1
f 229/3/1 230/9/1 231/10/1 232/11/1
f 233/3/1 234/9/1 235/10/1 236/11/1
f 237/3/1 238/9/1 239/10/1 240/11/1
f 241/3/1 242/9/1 243/10/1 244/11/1
f 245/3/1 246/9/1 247/10/1 248/11/1
f 249/3/1 250/9/1 251/10/1 252/11/1
f 253/3/1 254/9/1 255/10/1 256/11/1
f 257/3/1 258/9/1 259/10/1 260/11/1
f 261/3/1 262/9/1 263/10/1 264/11/1
f 265/3/1 266/9/1 267/10/1 268/11/1
f 269/3/1 270/9/1 271/10/1 272/11/1
f 273/3/1 274/9/1 275/10/1 276/11/1
f 277/3/1 278/9/1 279/10/1 280/11/1
f 281/3/1 282/9/1 283/10/1 284/11/1
f 285/3/1 286/9/1 287/10/1 288/11/1
f 289/3/1 290/9/1 291/10/1 292/11/1
f 293/3/1 294/9/1 295/10/1 296/11/1
f 297/3/1 298/9/1 299/10/1 300/11/1
f 301/3/1 302/9/1 303/10/1 304/11/1
f 305/3/1 306/9/1 307/10/1 308/11/1
f 309/3/1 310/9/1 311/10/1 312/11/1
f 313/3/1 314/9/1 315/10/1 316/11/1
f 317/3/1 318/9/1 319/10/1 320/11/1
f 321/3/1 322/9/1 323/10/1 324/11/1
f 325/3/1 326/9/1 327/10/1 328/11/1
f 329/3/1 330/9/1 331/10/1 332/11/1
f 333/3/1 334/9/1 335/10/1 336/11/1
f 337/3/1 338/9/1 339/10/1 340/11/1
f 341/3/1 342/9/1 343/10/1 344/11/1
f 345/3/1 346/9/1 347/10/1 348/11/1
f 349/3/1 350/9/1 351/10/1 352/11/1
f 353/3/1 354/9/1 355/10/1 356/11/1
f 357/3/1 358/9/1 359/10/1 360/11/1
f 361/3/1 362/9/1 363/10/1 364/11/1
f 365/3/1 366/9/1 367/10/1 368/11/1
f 369/3/1 370/9/1 371/10/1 372/11/1
f 373/3/1 374/9/1 375/10/1 376/11/1
f 377/3/1 378/9/1 379/10/1 380/11/1
f 381/3/1 382/9/1 383/10/1 384/11/1
f 385/3/1 386/9/1 387/10/1 388/11/1
f 389/3/1 390/9/1 391/10/1 392/11/1
f 393/3/1 394/9/1 395/10/1 396/11/1
f 397/3/1 398/9/1 399/10/1 400/11/1
f 401/3/1 402/9/1 403/10/1 404/11/1
f 405/3/1 406/9/1 407/10/1 408/11/1
f 409/3/1 410/9/1 411/10/1 412/11/1
f 413/3/1 414/9/1 415/10/1 416/11/1
f 417/3/1 418/9/1 419/10/1 420/11/1
f 421/3/1 422/9/1 423/10/1 424/11/1
f 425/3/1 426/9/1 427/10/1 428/11/1
f 429/3/1 430/9/1 431/10/1 432/11/1
f 433/3/1 434/9/1 435/10/1 436/11/1
f 437/3/1 438/9/1 439/10/1 440/11/1
f 441/3/1 442/9/1 443/10/1 444/11/1
f 445/3/1 446/9/1 447/10/1 448/11/1
f 449/3/1 450/9/1 451/10/1 452/11/1
f 453/3/1 454/9/1 455/10/1 456/11/1
f 457/3/1 458/9/1 459/10/1 460/11/1
f 461/3/1 462/9/1 463/10/1 464/11/1
f 465/3/1 466/9/1 467/10/1 468/11/1
f 469/3/1 470/9/1 471/10/1 472/11/1
f 473/3/1 474/9/1 475/10/1 476/11/1
f 477/3/1 478/9/1 479/10/1 480/11/1
f 481/3/1 482/9/1 483/10/1 484/11/1
f 485/3/1 486/9/1 487/10/1 488/11/1
f 489/3/1 490/9/1 491/10/1 492/11/1
f 493/3/1 494/9/1 495/10/1 496/11/1
f 497/3/1 498/9/1 499/10/1 500/11/1
f 501/3/1 502/9/1 503/10/1 504/11/1
f 505/3/1 506/9/1 507/10/1 508/11/1
f 509/3/1 510/9/1 511/10/1 512/11/1
f 513/3/1 514/9/1 515/10/1 516/11/1
f 517/3/1 518/9/1 519/10/1 520/11/1
f 521/3/1 522/9/1 523/10/1 524/11/1
f 525/3/1 526/9/1 527/10/1 528/11/1
f 529/3/1 530/9/1 531/10/1 532/11/1
f 533/3/1 534/9/1 535/10/1 536/11/1
f 537/3/1 538/9/1 539/10/1 540/11/1
f 541/3/1 542/9/1 543/10/1 544/11/1
f 545/3/1 546/9/1 547/10/1 548/11/1
f 549/3/1 550/9/1 551/10/1 552/11/1
f 553/3/1 554/9/1 555/10/1 556/11/1
f 557/3/1 558/9/1 559/10/1 560/11/1
f 561/3/1 562/9/1 563/10/1 564/11/1
f 565/3/1 566/9/1 567/10/1 568/11/1
f 569/3/1 570/9/1 571/10/1 572/11/1
f 573/3/1 574/9/1 575/10/1 576/11/1
f 577/3/1 578/9/1 579/10/1 580/11/1
f 581/3/1 582/9/1 583/10/1 584/11/1
f 585/3/1 586/9/1 587/10/1 588/11/1
f 589/3/1 590/9/1 591/10/1 592/11/1
f 593/3/1 594/9/1 595/10/1 596/11/1
f 597/3/1 598/9/1 599/10/1 600/11/1
f 601/3/1 602/9/1 603/10/1 604/11/1
f 605/3/1 606/9/1 607/10/1 608/11/1
f 609/3/1 610/9/1 611/10/1 612/11/1
f 613/3/1 614/9/1 615/10/1 616/11/1
f 617/3/1 618/9/1 619/10/1 620/11/1
f 621/3/1 622/9/1 623/10/1 624/11/1
f 625/3/1 626/9/1 627/10/1 628/11/1
f 629/3/1 630/9/1 631/10/1 632/11/1
f 633/3/1 634/9/1 635/10/1 636/11/1
f 637/3/1 638/9/1 639/10/1 640/11/1
f 641/3/1 642/9/1 643/10/1 644/11/1
f 645/3/1 646/9/1 647/10/1 648/11/1
f 649/3/1 650/9/1 651/10/1 652/11/1
f 653/3/1 654/9/1 655/10/1 656/11/1
f 657/3/1 658/9/1 659/10/1 660/11/1
f 661/3/1 662/9/1 663/10/1 664/11/1
f 665/3/1 666/9/1 667/10/1 668/11/1
f 669/3/1 670/9/1 671/10/1 672/11/1
f 673/3/1 674/9/1 675/10/1 676/11/1
f 677/3/1 678/9/1 679/10/1 680/11/1
f 681/3/1 682/9/1 683/10/1 684/11/1
f 685/3/1 686/9/1 687/10/1 688/11/1
f 689/3/1 690/9/1 691/10/1 692/11/1
f 693/3/1 694/9/1 695/10/1 696/11/1
f 697/3/1 698/9/1 699/10/1 700/11/1
f 701/3/1 702/9/1 703/10/1 704/11/1
f 705/3/1 706/9/1 707/10/1 708/11/1
f 709/3/1 710/9/1 711/10/1 712/11/1
f 713/3/1 714/9/1 715/10/1 716/11/1
f 717/3/1 718/9/1 719/10/1 720/11/1
f 721/3/1 722/9/1 723/10/1 724/11/1
f 725/3/1 726/9/1 727/10/1 728/11/1
f 729/3/1 730/9/1 731/10/1 732/11/1
f 733/3/1 734/9/1 735/10/1 736/11/1
f 737/3/1 738/9/1 739/10/1 740/11/1
f 741/3/1 742/9/1 743/10/1 744/11/1
f 745/3/1 746/9/1 747/10/1 748/11/1
f 749/3/1 750/9/1 751/10/1 752/11/1
f 753/3/1 754/9/1 755/10/1 756/11/1
f 757/3/1 758/9/1 759/10/1 760/11/1
f 761/3/1 762/9/1 763/10/1 764/11/1
f 765/3/1 766/9/1 767/10/1 768/11/1
f 769/3/1 770/9/1 771/10/1 772/11/1
f 773/3/1 774/9/1 775/10/1 776/11/1
f 777/3/1 778/9/1 779/10/1 780/11/1
f 781/3/1 782/9/1 783/10/1 784/11/1
f 785/3/1 786/9/1 787/10/1 788/11/1
f 789/3/1 790/9/1 791/10/1 792/11/1
f 793/3/1 794/9/1 795/10/1 796/11/1
f 797/3/1 798/9/1 799/10/1 800/11/1

