# Tiled2Unity generated file. Do not modify by hand.
# Wavefront file for 'Mapa_mesh_0112.obj'

# Vertices (Count = 36)
v -7 -3 0
v -8 -3 0
v -8 -2 0
v -7 -2 0
v -8 -3 0
v -9 -3 0
v -9 -2 0
v -8 -2 0
v -9 -3 0
v -10 -3 0
v -10 -2 0
v -9 -2 0
v -10 -3 0
v -11 -3 0
v -11 -2 0
v -10 -2 0
v -11 -3 0
v -12 -3 0
v -12 -2 0
v -11 -2 0
v -12 -3 0
v -13 -3 0
v -13 -2 0
v -12 -2 0
v -5 -5 0
v -6 -5 0
v -6 -4 0
v -5 -4 0
v -8 -5 0
v -9 -5 0
v -9 -4 0
v -8 -4 0
v 0 -6 0
v -1 -6 0
v -1 -5 0
v 0 -5 0

# Texture cooridinates (Count = 27)
vt 0.3125 0.9285714
vt 0.375 0.9285714
vt 0.375 1
vt 0.3125 1
vt 0 0.9285714
vt 0.0625 0.9285714
vt 0.0625 1
vt 0 1
vt 0.0625 0.8571429
vt 0.125 0.8571429
vt 0.125 0.9285714
vt 0.5 0.8571429
vt 0.5625 0.8571429
vt 0.5625 0.9285714
vt 0.5 0.9285714
vt 0.25 0.8571429
vt 0.3125 0.8571429
vt 0.25 0.9285714
vt 0.1875 0.9285714
vt 0.25 1
vt 0.1875 1
vt 0 0.2857143
vt 0.0625 0.2857143
vt 0.0625 0.3571429
vt 0 0.3571429
vt 0.125 0.2857143
vt 0.125 0.3571429

# Normal
vn 0 0 -1

# Mesh description
g Mapa_mesh_0112

# Faces
f 1/1/1 2/2/1 3/3/1 4/4/1
f 5/5/1 6/6/1 7/7/1 8/8/1
f 9/9/1 10/10/1 11/11/1 12/6/1
f 13/12/1 14/13/1 15/14/1 16/15/1
f 17/16/1 18/17/1 19/1/1 20/18/1
f 21/19/1 22/18/1 23/20/1 24/21/1
f 25/22/1 26/23/1 27/24/1 28/25/1
f 29/23/1 30/26/1 31/27/1 32/24/1
f 33/23/1 34/26/1 35/27/1 36/24/1

