# Tiled2Unity generated file. Do not modify by hand.
# Wavefront file for 'Mapa_mesh_0022.obj'

# Vertices (Count = 36)
v -3 -7 0
v -4 -7 0
v -4 -6 0
v -3 -6 0
v -3 -8 0
v -4 -8 0
v -4 -7 0
v -3 -7 0
v -3 -9 0
v -4 -9 0
v -4 -8 0
v -3 -8 0
v -3 -10 0
v -4 -10 0
v -4 -9 0
v -3 -9 0
v -3 -11 0
v -4 -11 0
v -4 -10 0
v -3 -10 0
v -3 -12 0
v -4 -12 0
v -4 -11 0
v -3 -11 0
v -3 -13 0
v -4 -13 0
v -4 -12 0
v -3 -12 0
v -3 -14 0
v -4 -14 0
v -4 -13 0
v -3 -13 0
v -3 -15 0
v -4 -15 0
v -4 -14 0
v -3 -14 0

# Texture cooridinates (Count = 4)
vt 0.4375 0.9285714
vt 0.5 0.9285714
vt 0.5 1
vt 0.4375 1

# Normal
vn 0 0 -1

# Mesh description
g Mapa_mesh_0022

# Faces
f 1/1/1 2/2/1 3/3/1 4/4/1
f 5/1/1 6/2/1 7/3/1 8/4/1
f 9/1/1 10/2/1 11/3/1 12/4/1
f 13/1/1 14/2/1 15/3/1 16/4/1
f 17/1/1 18/2/1 19/3/1 20/4/1
f 21/1/1 22/2/1 23/3/1 24/4/1
f 25/1/1 26/2/1 27/3/1 28/4/1
f 29/1/1 30/2/1 31/3/1 32/4/1
f 33/1/1 34/2/1 35/3/1 36/4/1

