# Tiled2Unity generated file. Do not modify by hand.
# Wavefront file for 'Mapa_mesh_0121.obj'

# Vertices (Count = 20)
v -6 -6 0
v -7 -6 0
v -7 -5 0
v -6 -5 0
v -7 -6 0
v -8 -6 0
v -8 -5 0
v -7 -5 0
v -2 -7 0
v -3 -7 0
v -3 -6 0
v -2 -6 0
v -6 -8 0
v -7 -8 0
v -7 -7 0
v -6 -7 0
v -12 -10 0
v -13 -10 0
v -13 -9 0
v -12 -9 0

# Texture cooridinates (Count = 16)
vt 0 0.8571429
vt 0.0625 0.8571429
vt 0.0625 0.9285714
vt 0 0.9285714
vt 0.3125 0.8571429
vt 0.375 0.8571429
vt 0.375 0.9285714
vt 0.3125 0.9285714
vt 0.0625 1
vt 0 1
vt 0 0.2142857
vt 0.0625 0.2142857
vt 0.0625 0.2857143
vt 0 0.2857143
vt 0 0.1428571
vt 0.0625 0.1428571

# Normal
vn 0 0 -1

# Mesh description
g Mapa_mesh_0121

# Faces
f 1/1/1 2/2/1 3/3/1 4/4/1
f 5/5/1 6/6/1 7/7/1 8/8/1
f 9/4/1 10/3/1 11/9/1 12/10/1
f 13/11/1 14/12/1 15/13/1 16/14/1
f 17/15/1 18/16/1 19/12/1 20/11/1

