# Tiled2Unity generated file. Do not modify by hand.
# Wavefront file for 'Mapa_mesh_0120.obj'

# Vertices (Count = 28)
v -5 -2 0
v -6 -2 0
v -6 -1 0
v -5 -1 0
v -6 -7 0
v -7 -7 0
v -7 -6 0
v -6 -6 0
v -2 -9 0
v -3 -9 0
v -3 -8 0
v -2 -8 0
v -3 -9 0
v -4 -9 0
v -4 -8 0
v -3 -8 0
v -4 -9 0
v -5 -9 0
v -5 -8 0
v -4 -8 0
v -13 -9 0
v -14 -9 0
v -14 -8 0
v -13 -8 0
v -5 -11 0
v -6 -11 0
v -6 -10 0
v -5 -10 0

# Texture cooridinates (Count = 20)
vt 0 0.2142857
vt 0.0625 0.2142857
vt 0.0625 0.2857143
vt 0 0.2857143
vt 0.125 0.9285714
vt 0.1875 0.9285714
vt 0.1875 1
vt 0.125 1
vt 0.0625 0.8571429
vt 0.125 0.8571429
vt 0.0625 0.9285714
vt 0.1875 0.8571429
vt 0.25 0.8571429
vt 0.25 0.9285714
vt 0.3125 0.8571429
vt 0.375 0.8571429
vt 0.375 0.9285714
vt 0.3125 0.9285714
vt 0 0.1428571
vt 0.0625 0.1428571

# Normal
vn 0 0 -1

# Mesh description
g Mapa_mesh_0120

# Faces
f 1/1/1 2/2/1 3/3/1 4/4/1
f 5/5/1 6/6/1 7/7/1 8/8/1
f 9/9/1 10/10/1 11/5/1 12/11/1
f 13/12/1 14/13/1 15/14/1 16/6/1
f 17/15/1 18/16/1 19/17/1 20/18/1
f 21/19/1 22/20/1 23/2/1 24/1/1
f 25/19/1 26/20/1 27/2/1 28/1/1

