# Tiled2Unity generated file. Do not modify by hand.
# Wavefront file for 'Mapa_mesh_0012.obj'

# Vertices (Count = 116)
v -15 -4 0
v -16 -4 0
v -16 -3 0
v -15 -3 0
v 0 -5 0
v -1 -5 0
v -1 -4 0
v 0 -4 0
v -1 -5 0
v -2 -5 0
v -2 -4 0
v -1 -4 0
v -9 -5 0
v -10 -5 0
v -10 -4 0
v -9 -4 0
v -15 -5 0
v -16 -5 0
v -16 -4 0
v -15 -4 0
v 0 -6 0
v -1 -6 0
v -1 -5 0
v 0 -5 0
v -1 -6 0
v -2 -6 0
v -2 -5 0
v -1 -5 0
v -9 -6 0
v -10 -6 0
v -10 -5 0
v -9 -5 0
v -15 -6 0
v -16 -6 0
v -16 -5 0
v -15 -5 0
v 0 -7 0
v -1 -7 0
v -1 -6 0
v 0 -6 0
v -1 -7 0
v -2 -7 0
v -2 -6 0
v -1 -6 0
v -9 -7 0
v -10 -7 0
v -10 -6 0
v -9 -6 0
v -15 -7 0
v -16 -7 0
v -16 -6 0
v -15 -6 0
v 0 -8 0
v -1 -8 0
v -1 -7 0
v 0 -7 0
v -1 -8 0
v -2 -8 0
v -2 -7 0
v -1 -7 0
v -9 -8 0
v -10 -8 0
v -10 -7 0
v -9 -7 0
v -15 -8 0
v -16 -8 0
v -16 -7 0
v -15 -7 0
v 0 -9 0
v -1 -9 0
v -1 -8 0
v 0 -8 0
v -1 -9 0
v -2 -9 0
v -2 -8 0
v -1 -8 0
v -9 -9 0
v -10 -9 0
v -10 -8 0
v -9 -8 0
v 0 -10 0
v -1 -10 0
v -1 -9 0
v 0 -9 0
v -1 -10 0
v -2 -10 0
v -2 -9 0
v -1 -9 0
v -9 -10 0
v -10 -10 0
v -10 -9 0
v -9 -9 0
v 0 -11 0
v -1 -11 0
v -1 -10 0
v 0 -10 0
v -1 -11 0
v -2 -11 0
v -2 -10 0
v -1 -10 0
v -9 -11 0
v -10 -11 0
v -10 -10 0
v -9 -10 0
v 0 -12 0
v -1 -12 0
v -1 -11 0
v 0 -11 0
v -1 -12 0
v -2 -12 0
v -2 -11 0
v -1 -11 0
v -9 -12 0
v -10 -12 0
v -10 -11 0
v -9 -11 0

# Texture cooridinates (Count = 15)
vt 0.875 0.6428571
vt 0.9375 0.6428571
vt 0.9375 0.7142857
vt 0.875 0.7142857
vt 0.625 0.5
vt 0.6875 0.5
vt 0.6875 0.5714285
vt 0.625 0.5714285
vt 0.75 0.5
vt 0.75 0.5714285
vt 0.875 0.5714285
vt 0.9375 0.5714285
vt 0.625 0.4285714
vt 0.6875 0.4285714
vt 0.75 0.4285714

# Normal
vn 0 0 -1

# Mesh description
g Mapa_mesh_0012

# Faces
f 1/1/1 2/2/1 3/3/1 4/4/1
f 5/5/1 6/6/1 7/7/1 8/8/1
f 9/6/1 10/9/1 11/10/1 12/7/1
f 13/1/1 14/2/1 15/3/1 16/4/1
f 17/11/1 18/12/1 19/2/1 20/1/1
f 21/13/1 22/14/1 23/6/1 24/5/1
f 25/14/1 26/15/1 27/9/1 28/6/1
f 29/11/1 30/12/1 31/2/1 32/1/1
f 33/11/1 34/12/1 35/2/1 36/1/1
f 37/13/1 38/14/1 39/6/1 40/5/1
f 41/14/1 42/15/1 43/9/1 44/6/1
f 45/11/1 46/12/1 47/2/1 48/1/1
f 49/11/1 50/12/1 51/2/1 52/1/1
f 53/13/1 54/14/1 55/6/1 56/5/1
f 57/14/1 58/15/1 59/9/1 60/6/1
f 61/11/1 62/12/1 63/2/1 64/1/1
f 65/11/1 66/12/1 67/2/1 68/1/1
f 69/13/1 70/14/1 71/6/1 72/5/1
f 73/14/1 74/15/1 75/9/1 76/6/1
f 77/11/1 78/12/1 79/2/1 80/1/1
f 81/13/1 82/14/1 83/6/1 84/5/1
f 85/14/1 86/15/1 87/9/1 88/6/1
f 89/11/1 90/12/1 91/2/1 92/1/1
f 93/13/1 94/14/1 95/6/1 96/5/1
f 97/14/1 98/15/1 99/9/1 100/6/1
f 101/11/1 102/12/1 103/2/1 104/1/1
f 105/13/1 106/14/1 107/6/1 108/5/1
f 109/14/1 110/15/1 111/9/1 112/6/1
f 113/11/1 114/12/1 115/2/1 116/1/1

