# Tiled2Unity generated file. Do not modify by hand.
# Wavefront file for 'Mapa_mesh_0060.obj'

# Vertices (Count = 28)
v -14 -5 0
v -15 -5 0
v -15 -4 0
v -14 -4 0
v 0 -6 0
v -1 -6 0
v -1 -5 0
v 0 -5 0
v -11 -6 0
v -12 -6 0
v -12 -5 0
v -11 -5 0
v -6 -7 0
v -7 -7 0
v -7 -6 0
v -6 -6 0
v -7 -7 0
v -8 -7 0
v -8 -6 0
v -7 -6 0
v -2 -8 0
v -3 -8 0
v -3 -7 0
v -2 -7 0
v -3 -8 0
v -4 -8 0
v -4 -7 0
v -3 -7 0

# Texture cooridinates (Count = 10)
vt 0.25 0.7857143
vt 0.3125 0.7857143
vt 0.3125 0.8571429
vt 0.25 0.8571429
vt 0.1875 0.7857143
vt 0.1875 0.8571429
vt 0.0625 0.7857143
vt 0.125 0.7857143
vt 0.125 0.8571429
vt 0.0625 0.8571429

# Normal
vn 0 0 -1

# Mesh description
g Mapa_mesh_0060

# Faces
f 1/1/1 2/2/1 3/3/1 4/4/1
f 5/5/1 6/1/1 7/4/1 8/6/1
f 9/1/1 10/2/1 11/3/1 12/4/1
f 13/7/1 14/8/1 15/9/1 16/10/1
f 17/5/1 18/1/1 19/4/1 20/6/1
f 21/7/1 22/8/1 23/9/1 24/10/1
f 25/5/1 26/1/1 27/4/1 28/6/1

