# Tiled2Unity generated file. Do not modify by hand.
# Wavefront file for 'Mapa_mesh_0087.obj'

# Vertices (Count = 872)
v -2 -1 0
v -3 -1 0
v -3 0 0
v -2 0 0
v -3 -1 0
v -4 -1 0
v -4 0 0
v -3 0 0
v -4 -1 0
v -5 -1 0
v -5 0 0
v -4 0 0
v -5 -1 0
v -6 -1 0
v -6 0 0
v -5 0 0
v -6 -1 0
v -7 -1 0
v -7 0 0
v -6 0 0
v -7 -1 0
v -8 -1 0
v -8 0 0
v -7 0 0
v -8 -1 0
v -9 -1 0
v -9 0 0
v -8 0 0
v -9 -1 0
v -10 -1 0
v -10 0 0
v -9 0 0
v -10 -1 0
v -11 -1 0
v -11 0 0
v -10 0 0
v -11 -1 0
v -12 -1 0
v -12 0 0
v -11 0 0
v -12 -1 0
v -13 -1 0
v -13 0 0
v -12 0 0
v -13 -1 0
v -14 -1 0
v -14 0 0
v -13 0 0
v -14 -1 0
v -15 -1 0
v -15 0 0
v -14 0 0
v -15 -1 0
v -16 -1 0
v -16 0 0
v -15 0 0
v -2 -2 0
v -3 -2 0
v -3 -1 0
v -2 -1 0
v -3 -2 0
v -4 -2 0
v -4 -1 0
v -3 -1 0
v -4 -2 0
v -5 -2 0
v -5 -1 0
v -4 -1 0
v -5 -2 0
v -6 -2 0
v -6 -1 0
v -5 -1 0
v -6 -2 0
v -7 -2 0
v -7 -1 0
v -6 -1 0
v -7 -2 0
v -8 -2 0
v -8 -1 0
v -7 -1 0
v -8 -2 0
v -9 -2 0
v -9 -1 0
v -8 -1 0
v -9 -2 0
v -10 -2 0
v -10 -1 0
v -9 -1 0
v -10 -2 0
v -11 -2 0
v -11 -1 0
v -10 -1 0
v -11 -2 0
v -12 -2 0
v -12 -1 0
v -11 -1 0
v -12 -2 0
v -13 -2 0
v -13 -1 0
v -12 -1 0
v -13 -2 0
v -14 -2 0
v -14 -1 0
v -13 -1 0
v -14 -2 0
v -15 -2 0
v -15 -1 0
v -14 -1 0
v -15 -2 0
v -16 -2 0
v -16 -1 0
v -15 -1 0
v -2 -3 0
v -3 -3 0
v -3 -2 0
v -2 -2 0
v -3 -3 0
v -4 -3 0
v -4 -2 0
v -3 -2 0
v -4 -3 0
v -5 -3 0
v -5 -2 0
v -4 -2 0
v -5 -3 0
v -6 -3 0
v -6 -2 0
v -5 -2 0
v -6 -3 0
v -7 -3 0
v -7 -2 0
v -6 -2 0
v -7 -3 0
v -8 -3 0
v -8 -2 0
v -7 -2 0
v -8 -3 0
v -9 -3 0
v -9 -2 0
v -8 -2 0
v -9 -3 0
v -10 -3 0
v -10 -2 0
v -9 -2 0
v -10 -3 0
v -11 -3 0
v -11 -2 0
v -10 -2 0
v -11 -3 0
v -12 -3 0
v -12 -2 0
v -11 -2 0
v -12 -3 0
v -13 -3 0
v -13 -2 0
v -12 -2 0
v -13 -3 0
v -14 -3 0
v -14 -2 0
v -13 -2 0
v -14 -3 0
v -15 -3 0
v -15 -2 0
v -14 -2 0
v -15 -3 0
v -16 -3 0
v -16 -2 0
v -15 -2 0
v 0 -4 0
v -1 -4 0
v -1 -3 0
v 0 -3 0
v -1 -4 0
v -2 -4 0
v -2 -3 0
v -1 -3 0
v -2 -4 0
v -3 -4 0
v -3 -3 0
v -2 -3 0
v -3 -4 0
v -4 -4 0
v -4 -3 0
v -3 -3 0
v -4 -4 0
v -5 -4 0
v -5 -3 0
v -4 -3 0
v -5 -4 0
v -6 -4 0
v -6 -3 0
v -5 -3 0
v -6 -4 0
v -7 -4 0
v -7 -3 0
v -6 -3 0
v -7 -4 0
v -8 -4 0
v -8 -3 0
v -7 -3 0
v -8 -4 0
v -9 -4 0
v -9 -3 0
v -8 -3 0
v -9 -4 0
v -10 -4 0
v -10 -3 0
v -9 -3 0
v -10 -4 0
v -11 -4 0
v -11 -3 0
v -10 -3 0
v -11 -4 0
v -12 -4 0
v -12 -3 0
v -11 -3 0
v -12 -4 0
v -13 -4 0
v -13 -3 0
v -12 -3 0
v -13 -4 0
v -14 -4 0
v -14 -3 0
v -13 -3 0
v -14 -4 0
v -15 -4 0
v -15 -3 0
v -14 -3 0
v -15 -4 0
v -16 -4 0
v -16 -3 0
v -15 -3 0
v 0 -5 0
v -1 -5 0
v -1 -4 0
v 0 -4 0
v -1 -5 0
v -2 -5 0
v -2 -4 0
v -1 -4 0
v -2 -5 0
v -3 -5 0
v -3 -4 0
v -2 -4 0
v -3 -5 0
v -4 -5 0
v -4 -4 0
v -3 -4 0
v -4 -5 0
v -5 -5 0
v -5 -4 0
v -4 -4 0
v -5 -5 0
v -6 -5 0
v -6 -4 0
v -5 -4 0
v -6 -5 0
v -7 -5 0
v -7 -4 0
v -6 -4 0
v -7 -5 0
v -8 -5 0
v -8 -4 0
v -7 -4 0
v -8 -5 0
v -9 -5 0
v -9 -4 0
v -8 -4 0
v -9 -5 0
v -10 -5 0
v -10 -4 0
v -9 -4 0
v -10 -5 0
v -11 -5 0
v -11 -4 0
v -10 -4 0
v -11 -5 0
v -12 -5 0
v -12 -4 0
v -11 -4 0
v -12 -5 0
v -13 -5 0
v -13 -4 0
v -12 -4 0
v -13 -5 0
v -14 -5 0
v -14 -4 0
v -13 -4 0
v -14 -5 0
v -15 -5 0
v -15 -4 0
v -14 -4 0
v -15 -5 0
v -16 -5 0
v -16 -4 0
v -15 -4 0
v 0 -6 0
v -1 -6 0
v -1 -5 0
v 0 -5 0
v -1 -6 0
v -2 -6 0
v -2 -5 0
v -1 -5 0
v -2 -6 0
v -3 -6 0
v -3 -5 0
v -2 -5 0
v -3 -6 0
v -4 -6 0
v -4 -5 0
v -3 -5 0
v -4 -6 0
v -5 -6 0
v -5 -5 0
v -4 -5 0
v -5 -6 0
v -6 -6 0
v -6 -5 0
v -5 -5 0
v -6 -6 0
v -7 -6 0
v -7 -5 0
v -6 -5 0
v -7 -6 0
v -8 -6 0
v -8 -5 0
v -7 -5 0
v -8 -6 0
v -9 -6 0
v -9 -5 0
v -8 -5 0
v -9 -6 0
v -10 -6 0
v -10 -5 0
v -9 -5 0
v -10 -6 0
v -11 -6 0
v -11 -5 0
v -10 -5 0
v -11 -6 0
v -12 -6 0
v -12 -5 0
v -11 -5 0
v -12 -6 0
v -13 -6 0
v -13 -5 0
v -12 -5 0
v -13 -6 0
v -14 -6 0
v -14 -5 0
v -13 -5 0
v -14 -6 0
v -15 -6 0
v -15 -5 0
v -14 -5 0
v -15 -6 0
v -16 -6 0
v -16 -5 0
v -15 -5 0
v 0 -7 0
v -1 -7 0
v -1 -6 0
v 0 -6 0
v -1 -7 0
v -2 -7 0
v -2 -6 0
v -1 -6 0
v -2 -7 0
v -3 -7 0
v -3 -6 0
v -2 -6 0
v -3 -7 0
v -4 -7 0
v -4 -6 0
v -3 -6 0
v -4 -7 0
v -5 -7 0
v -5 -6 0
v -4 -6 0
v -5 -7 0
v -6 -7 0
v -6 -6 0
v -5 -6 0
v -6 -7 0
v -7 -7 0
v -7 -6 0
v -6 -6 0
v -7 -7 0
v -8 -7 0
v -8 -6 0
v -7 -6 0
v -8 -7 0
v -9 -7 0
v -9 -6 0
v -8 -6 0
v -9 -7 0
v -10 -7 0
v -10 -6 0
v -9 -6 0
v -10 -7 0
v -11 -7 0
v -11 -6 0
v -10 -6 0
v -11 -7 0
v -12 -7 0
v -12 -6 0
v -11 -6 0
v -12 -7 0
v -13 -7 0
v -13 -6 0
v -12 -6 0
v -13 -7 0
v -14 -7 0
v -14 -6 0
v -13 -6 0
v -14 -7 0
v -15 -7 0
v -15 -6 0
v -14 -6 0
v -15 -7 0
v -16 -7 0
v -16 -6 0
v -15 -6 0
v 0 -8 0
v -1 -8 0
v -1 -7 0
v 0 -7 0
v -1 -8 0
v -2 -8 0
v -2 -7 0
v -1 -7 0
v -2 -8 0
v -3 -8 0
v -3 -7 0
v -2 -7 0
v -3 -8 0
v -4 -8 0
v -4 -7 0
v -3 -7 0
v -4 -8 0
v -5 -8 0
v -5 -7 0
v -4 -7 0
v -5 -8 0
v -6 -8 0
v -6 -7 0
v -5 -7 0
v -6 -8 0
v -7 -8 0
v -7 -7 0
v -6 -7 0
v -7 -8 0
v -8 -8 0
v -8 -7 0
v -7 -7 0
v -8 -8 0
v -9 -8 0
v -9 -7 0
v -8 -7 0
v -9 -8 0
v -10 -8 0
v -10 -7 0
v -9 -7 0
v -10 -8 0
v -11 -8 0
v -11 -7 0
v -10 -7 0
v -11 -8 0
v -12 -8 0
v -12 -7 0
v -11 -7 0
v -12 -8 0
v -13 -8 0
v -13 -7 0
v -12 -7 0
v -13 -8 0
v -14 -8 0
v -14 -7 0
v -13 -7 0
v -14 -8 0
v -15 -8 0
v -15 -7 0
v -14 -7 0
v -15 -8 0
v -16 -8 0
v -16 -7 0
v -15 -7 0
v 0 -9 0
v -1 -9 0
v -1 -8 0
v 0 -8 0
v -1 -9 0
v -2 -9 0
v -2 -8 0
v -1 -8 0
v -2 -9 0
v -3 -9 0
v -3 -8 0
v -2 -8 0
v -3 -9 0
v -4 -9 0
v -4 -8 0
v -3 -8 0
v -4 -9 0
v -5 -9 0
v -5 -8 0
v -4 -8 0
v -5 -9 0
v -6 -9 0
v -6 -8 0
v -5 -8 0
v -6 -9 0
v -7 -9 0
v -7 -8 0
v -6 -8 0
v -7 -9 0
v -8 -9 0
v -8 -8 0
v -7 -8 0
v -8 -9 0
v -9 -9 0
v -9 -8 0
v -8 -8 0
v -9 -9 0
v -10 -9 0
v -10 -8 0
v -9 -8 0
v -10 -9 0
v -11 -9 0
v -11 -8 0
v -10 -8 0
v -11 -9 0
v -12 -9 0
v -12 -8 0
v -11 -8 0
v -12 -9 0
v -13 -9 0
v -13 -8 0
v -12 -8 0
v -13 -9 0
v -14 -9 0
v -14 -8 0
v -13 -8 0
v -14 -9 0
v -15 -9 0
v -15 -8 0
v -14 -8 0
v -15 -9 0
v -16 -9 0
v -16 -8 0
v -15 -8 0
v 0 -10 0
v -1 -10 0
v -1 -9 0
v 0 -9 0
v -1 -10 0
v -2 -10 0
v -2 -9 0
v -1 -9 0
v -2 -10 0
v -3 -10 0
v -3 -9 0
v -2 -9 0
v -3 -10 0
v -4 -10 0
v -4 -9 0
v -3 -9 0
v -4 -10 0
v -5 -10 0
v -5 -9 0
v -4 -9 0
v -5 -10 0
v -6 -10 0
v -6 -9 0
v -5 -9 0
v -6 -10 0
v -7 -10 0
v -7 -9 0
v -6 -9 0
v -7 -10 0
v -8 -10 0
v -8 -9 0
v -7 -9 0
v -8 -10 0
v -9 -10 0
v -9 -9 0
v -8 -9 0
v -9 -10 0
v -10 -10 0
v -10 -9 0
v -9 -9 0
v -10 -10 0
v -11 -10 0
v -11 -9 0
v -10 -9 0
v -11 -10 0
v -12 -10 0
v -12 -9 0
v -11 -9 0
v -12 -10 0
v -13 -10 0
v -13 -9 0
v -12 -9 0
v -13 -10 0
v -14 -10 0
v -14 -9 0
v -13 -9 0
v -14 -10 0
v -15 -10 0
v -15 -9 0
v -14 -9 0
v -15 -10 0
v -16 -10 0
v -16 -9 0
v -15 -9 0
v 0 -11 0
v -1 -11 0
v -1 -10 0
v 0 -10 0
v -1 -11 0
v -2 -11 0
v -2 -10 0
v -1 -10 0
v -2 -11 0
v -3 -11 0
v -3 -10 0
v -2 -10 0
v -3 -11 0
v -4 -11 0
v -4 -10 0
v -3 -10 0
v -4 -11 0
v -5 -11 0
v -5 -10 0
v -4 -10 0
v -5 -11 0
v -6 -11 0
v -6 -10 0
v -5 -10 0
v -6 -11 0
v -7 -11 0
v -7 -10 0
v -6 -10 0
v -7 -11 0
v -8 -11 0
v -8 -10 0
v -7 -10 0
v -8 -11 0
v -9 -11 0
v -9 -10 0
v -8 -10 0
v -9 -11 0
v -10 -11 0
v -10 -10 0
v -9 -10 0
v -10 -11 0
v -11 -11 0
v -11 -10 0
v -10 -10 0
v -11 -11 0
v -12 -11 0
v -12 -10 0
v -11 -10 0
v -12 -11 0
v -13 -11 0
v -13 -10 0
v -12 -10 0
v -13 -11 0
v -14 -11 0
v -14 -10 0
v -13 -10 0
v -14 -11 0
v -15 -11 0
v -15 -10 0
v -14 -10 0
v -15 -11 0
v -16 -11 0
v -16 -10 0
v -15 -10 0
v 0 -12 0
v -1 -12 0
v -1 -11 0
v 0 -11 0
v -1 -12 0
v -2 -12 0
v -2 -11 0
v -1 -11 0
v -2 -12 0
v -3 -12 0
v -3 -11 0
v -2 -11 0
v -3 -12 0
v -4 -12 0
v -4 -11 0
v -3 -11 0
v -4 -12 0
v -5 -12 0
v -5 -11 0
v -4 -11 0
v -5 -12 0
v -6 -12 0
v -6 -11 0
v -5 -11 0
v -6 -12 0
v -7 -12 0
v -7 -11 0
v -6 -11 0
v -7 -12 0
v -8 -12 0
v -8 -11 0
v -7 -11 0
v -8 -12 0
v -9 -12 0
v -9 -11 0
v -8 -11 0
v -9 -12 0
v -10 -12 0
v -10 -11 0
v -9 -11 0
v -10 -12 0
v -11 -12 0
v -11 -11 0
v -10 -11 0
v -11 -12 0
v -12 -12 0
v -12 -11 0
v -11 -11 0
v -12 -12 0
v -13 -12 0
v -13 -11 0
v -12 -11 0
v -13 -12 0
v -14 -12 0
v -14 -11 0
v -13 -11 0
v -14 -12 0
v -15 -12 0
v -15 -11 0
v -14 -11 0
v -15 -12 0
v -16 -12 0
v -16 -11 0
v -15 -11 0
v 0 -13 0
v -1 -13 0
v -1 -12 0
v 0 -12 0
v -1 -13 0
v -2 -13 0
v -2 -12 0
v -1 -12 0
v -2 -13 0
v -3 -13 0
v -3 -12 0
v -2 -12 0
v -3 -13 0
v -4 -13 0
v -4 -12 0
v -3 -12 0
v -4 -13 0
v -5 -13 0
v -5 -12 0
v -4 -12 0
v -5 -13 0
v -6 -13 0
v -6 -12 0
v -5 -12 0
v -6 -13 0
v -7 -13 0
v -7 -12 0
v -6 -12 0
v -7 -13 0
v -8 -13 0
v -8 -12 0
v -7 -12 0
v -8 -13 0
v -9 -13 0
v -9 -12 0
v -8 -12 0
v -9 -13 0
v -10 -13 0
v -10 -12 0
v -9 -12 0
v -10 -13 0
v -11 -13 0
v -11 -12 0
v -10 -12 0
v -11 -13 0
v -12 -13 0
v -12 -12 0
v -11 -12 0
v -12 -13 0
v -13 -13 0
v -13 -12 0
v -12 -12 0
v -13 -13 0
v -14 -13 0
v -14 -12 0
v -13 -12 0
v -14 -13 0
v -15 -13 0
v -15 -12 0
v -14 -12 0
v -15 -13 0
v -16 -13 0
v -16 -12 0
v -15 -12 0
v 0 -14 0
v -1 -14 0
v -1 -13 0
v 0 -13 0
v -1 -14 0
v -2 -14 0
v -2 -13 0
v -1 -13 0
v -2 -14 0
v -3 -14 0
v -3 -13 0
v -2 -13 0
v -3 -14 0
v -4 -14 0
v -4 -13 0
v -3 -13 0
v -4 -14 0
v -5 -14 0
v -5 -13 0
v -4 -13 0
v -5 -14 0
v -6 -14 0
v -6 -13 0
v -5 -13 0
v -6 -14 0
v -7 -14 0
v -7 -13 0
v -6 -13 0
v -7 -14 0
v -8 -14 0
v -8 -13 0
v -7 -13 0
v -8 -14 0
v -9 -14 0
v -9 -13 0
v -8 -13 0
v -9 -14 0
v -10 -14 0
v -10 -13 0
v -9 -13 0
v -10 -14 0
v -11 -14 0
v -11 -13 0
v -10 -13 0
v -11 -14 0
v -12 -14 0
v -12 -13 0
v -11 -13 0
v -12 -14 0
v -13 -14 0
v -13 -13 0
v -12 -13 0
v -13 -14 0
v -14 -14 0
v -14 -13 0
v -13 -13 0
v -14 -14 0
v -15 -14 0
v -15 -13 0
v -14 -13 0
v -15 -14 0
v -16 -14 0
v -16 -13 0
v -15 -13 0

# Texture cooridinates (Count = 26)
vt 0.0625 0.6428571
vt 0.125 0.6428571
vt 0.125 0.7142857
vt 0.0625 0.7142857
vt 0.0625 0.4285714
vt 0.125 0.4285714
vt 0.125 0.5
vt 0.0625 0.5
vt 0.1875 0.4285714
vt 0.1875 0.5
vt 0.25 0.4285714
vt 0.25 0.5
vt 0.1875 0.6428571
vt 0.25 0.6428571
vt 0.25 0.7142857
vt 0.1875 0.7142857
vt 0.125 0.7857143
vt 0.0625 0.7857143
vt 0.1875 0.7857143
vt 0.375 0.6428571
vt 0.4375 0.6428571
vt 0.4375 0.7142857
vt 0.375 0.7142857
vt 0.125 0.5714285
vt 0.0625 0.5714285
vt 0.1875 0.5714285

# Normal
vn 0 0 -1

# Mesh description
g Mapa_mesh_0087

# Faces
f 1/1/1 2/2/1 3/3/1 4/4/1
f 5/5/1 6/6/1 7/7/1 8/8/1
f 9/6/1 10/9/1 11/10/1 12/7/1
f 13/6/1 14/9/1 15/10/1 16/7/1
f 17/6/1 18/9/1 19/10/1 20/7/1
f 21/6/1 22/9/1 23/10/1 24/7/1
f 25/6/1 26/9/1 27/10/1 28/7/1
f 29/6/1 30/9/1 31/10/1 32/7/1
f 33/6/1 34/9/1 35/10/1 36/7/1
f 37/6/1 38/9/1 39/10/1 40/7/1
f 41/6/1 42/9/1 43/10/1 44/7/1
f 45/6/1 46/9/1 47/10/1 48/7/1
f 49/9/1 50/11/1 51/12/1 52/10/1
f 53/13/1 54/14/1 55/15/1 56/16/1
f 57/1/1 58/2/1 59/3/1 60/4/1
f 61/5/1 62/6/1 63/7/1 64/8/1
f 65/6/1 66/9/1 67/10/1 68/7/1
f 69/6/1 70/9/1 71/10/1 72/7/1
f 73/6/1 74/9/1 75/10/1 76/7/1
f 77/6/1 78/9/1 79/10/1 80/7/1
f 81/6/1 82/9/1 83/10/1 84/7/1
f 85/6/1 86/9/1 87/10/1 88/7/1
f 89/6/1 90/9/1 91/10/1 92/7/1
f 93/6/1 94/9/1 95/10/1 96/7/1
f 97/6/1 98/9/1 99/10/1 100/7/1
f 101/6/1 102/9/1 103/10/1 104/7/1
f 105/9/1 106/11/1 107/12/1 108/10/1
f 109/13/1 110/14/1 111/15/1 112/16/1
f 113/1/1 114/2/1 115/3/1 116/4/1
f 117/5/1 118/6/1 119/7/1 120/8/1
f 121/6/1 122/9/1 123/10/1 124/7/1
f 125/6/1 126/9/1 127/10/1 128/7/1
f 129/6/1 130/9/1 131/10/1 132/7/1
f 133/6/1 134/9/1 135/10/1 136/7/1
f 137/6/1 138/9/1 139/10/1 140/7/1
f 141/6/1 142/9/1 143/10/1 144/7/1
f 145/6/1 146/9/1 147/10/1 148/7/1
f 149/6/1 150/9/1 151/10/1 152/7/1
f 153/6/1 154/9/1 155/10/1 156/7/1
f 157/6/1 158/9/1 159/10/1 160/7/1
f 161/9/1 162/11/1 163/12/1 164/10/1
f 165/13/1 166/14/1 167/15/1 168/16/1
f 169/4/1 170/3/1 171/17/1 172/18/1
f 173/3/1 174/16/1 175/19/1 176/17/1
f 177/20/1 178/21/1 179/22/1 180/23/1
f 181/5/1 182/6/1 183/7/1 184/8/1
f 185/6/1 186/9/1 187/10/1 188/7/1
f 189/6/1 190/9/1 191/10/1 192/7/1
f 193/6/1 194/9/1 195/10/1 196/7/1
f 197/6/1 198/9/1 199/10/1 200/7/1
f 201/6/1 202/9/1 203/10/1 204/7/1
f 205/6/1 206/9/1 207/10/1 208/7/1
f 209/6/1 210/9/1 211/10/1 212/7/1
f 213/6/1 214/9/1 215/10/1 216/7/1
f 217/6/1 218/9/1 219/10/1 220/7/1
f 221/6/1 222/9/1 223/10/1 224/7/1
f 225/9/1 226/11/1 227/12/1 228/10/1
f 229/13/1 230/14/1 231/15/1 232/16/1
f 233/1/1 234/2/1 235/3/1 236/4/1
f 237/8/1 238/7/1 239/24/1 240/25/1
f 241/7/1 242/10/1 243/26/1 244/24/1
f 245/6/1 246/9/1 247/10/1 248/7/1
f 249/6/1 250/9/1 251/10/1 252/7/1
f 253/6/1 254/9/1 255/10/1 256/7/1
f 257/6/1 258/9/1 259/10/1 260/7/1
f 261/6/1 262/9/1 263/10/1 264/7/1
f 265/6/1 266/9/1 267/10/1 268/7/1
f 269/6/1 270/9/1 271/10/1 272/7/1
f 273/6/1 274/9/1 275/10/1 276/7/1
f 277/6/1 278/9/1 279/10/1 280/7/1
f 281/6/1 282/9/1 283/10/1 284/7/1
f 285/6/1 286/9/1 287/10/1 288/7/1
f 289/9/1 290/11/1 291/12/1 292/10/1
f 293/13/1 294/14/1 295/15/1 296/16/1
f 297/20/1 298/21/1 299/22/1 300/23/1
f 301/5/1 302/6/1 303/7/1 304/8/1
f 305/6/1 306/9/1 307/10/1 308/7/1
f 309/6/1 310/9/1 311/10/1 312/7/1
f 313/6/1 314/9/1 315/10/1 316/7/1
f 317/6/1 318/9/1 319/10/1 320/7/1
f 321/6/1 322/9/1 323/10/1 324/7/1
f 325/6/1 326/9/1 327/10/1 328/7/1
f 329/6/1 330/9/1 331/10/1 332/7/1
f 333/6/1 334/9/1 335/10/1 336/7/1
f 337/6/1 338/9/1 339/10/1 340/7/1
f 341/6/1 342/9/1 343/10/1 344/7/1
f 345/6/1 346/9/1 347/10/1 348/7/1
f 349/6/1 350/9/1 351/10/1 352/7/1
f 353/9/1 354/11/1 355/12/1 356/10/1
f 357/13/1 358/14/1 359/15/1 360/16/1
f 361/8/1 362/7/1 363/24/1 364/25/1
f 365/6/1 366/9/1 367/10/1 368/7/1
f 369/6/1 370/9/1 371/10/1 372/7/1
f 373/6/1 374/9/1 375/10/1 376/7/1
f 377/6/1 378/9/1 379/10/1 380/7/1
f 381/6/1 382/9/1 383/10/1 384/7/1
f 385/6/1 386/9/1 387/10/1 388/7/1
f 389/6/1 390/9/1 391/10/1 392/7/1
f 393/6/1 394/9/1 395/10/1 396/7/1
f 397/6/1 398/9/1 399/10/1 400/7/1
f 401/6/1 402/9/1 403/10/1 404/7/1
f 405/6/1 406/9/1 407/10/1 408/7/1
f 409/6/1 410/9/1 411/10/1 412/7/1
f 413/6/1 414/9/1 415/10/1 416/7/1
f 417/9/1 418/11/1 419/12/1 420/10/1
f 421/13/1 422/14/1 423/15/1 424/16/1
f 425/5/1 426/6/1 427/7/1 428/8/1
f 429/6/1 430/9/1 431/10/1 432/7/1
f 433/6/1 434/9/1 435/10/1 436/7/1
f 437/6/1 438/9/1 439/10/1 440/7/1
f 441/6/1 442/9/1 443/10/1 444/7/1
f 445/6/1 446/9/1 447/10/1 448/7/1
f 449/6/1 450/9/1 451/10/1 452/7/1
f 453/6/1 454/9/1 455/10/1 456/7/1
f 457/6/1 458/9/1 459/10/1 460/7/1
f 461/6/1 462/9/1 463/10/1 464/7/1
f 465/6/1 466/9/1 467/10/1 468/7/1
f 469/6/1 470/9/1 471/10/1 472/7/1
f 473/6/1 474/9/1 475/10/1 476/7/1
f 477/6/1 478/9/1 479/10/1 480/7/1
f 481/9/1 482/11/1 483/12/1 484/10/1
f 485/13/1 486/14/1 487/15/1 488/16/1
f 489/6/1 490/9/1 491/10/1 492/7/1
f 493/6/1 494/9/1 495/10/1 496/7/1
f 497/6/1 498/9/1 499/10/1 500/7/1
f 501/6/1 502/9/1 503/10/1 504/7/1
f 505/6/1 506/9/1 507/10/1 508/7/1
f 509/6/1 510/9/1 511/10/1 512/7/1
f 513/6/1 514/9/1 515/10/1 516/7/1
f 517/6/1 518/9/1 519/10/1 520/7/1
f 521/6/1 522/9/1 523/10/1 524/7/1
f 525/6/1 526/9/1 527/10/1 528/7/1
f 529/6/1 530/9/1 531/10/1 532/7/1
f 533/6/1 534/9/1 535/10/1 536/7/1
f 537/6/1 538/9/1 539/10/1 540/7/1
f 541/6/1 542/9/1 543/10/1 544/7/1
f 545/9/1 546/11/1 547/12/1 548/10/1
f 549/13/1 550/14/1 551/15/1 552/16/1
f 553/6/1 554/9/1 555/10/1 556/7/1
f 557/6/1 558/9/1 559/10/1 560/7/1
f 561/6/1 562/9/1 563/10/1 564/7/1
f 565/6/1 566/9/1 567/10/1 568/7/1
f 569/6/1 570/9/1 571/10/1 572/7/1
f 573/6/1 574/9/1 575/10/1 576/7/1
f 577/6/1 578/9/1 579/10/1 580/7/1
f 581/6/1 582/9/1 583/10/1 584/7/1
f 585/6/1 586/9/1 587/10/1 588/7/1
f 589/6/1 590/9/1 591/10/1 592/7/1
f 593/6/1 594/9/1 595/10/1 596/7/1
f 597/6/1 598/9/1 599/10/1 600/7/1
f 601/6/1 602/9/1 603/10/1 604/7/1
f 605/6/1 606/9/1 607/10/1 608/7/1
f 609/9/1 610/11/1 611/12/1 612/10/1
f 613/13/1 614/14/1 615/15/1 616/16/1
f 617/6/1 618/9/1 619/10/1 620/7/1
f 621/6/1 622/9/1 623/10/1 624/7/1
f 625/6/1 626/9/1 627/10/1 628/7/1
f 629/6/1 630/9/1 631/10/1 632/7/1
f 633/6/1 634/9/1 635/10/1 636/7/1
f 637/6/1 638/9/1 639/10/1 640/7/1
f 641/6/1 642/9/1 643/10/1 644/7/1
f 645/6/1 646/9/1 647/10/1 648/7/1
f 649/6/1 650/9/1 651/10/1 652/7/1
f 653/6/1 654/9/1 655/10/1 656/7/1
f 657/6/1 658/9/1 659/10/1 660/7/1
f 661/6/1 662/9/1 663/10/1 664/7/1
f 665/6/1 666/9/1 667/10/1 668/7/1
f 669/6/1 670/9/1 671/10/1 672/7/1
f 673/9/1 674/11/1 675/12/1 676/10/1
f 677/13/1 678/14/1 679/15/1 680/16/1
f 681/6/1 682/9/1 683/10/1 684/7/1
f 685/6/1 686/9/1 687/10/1 688/7/1
f 689/6/1 690/9/1 691/10/1 692/7/1
f 693/6/1 694/9/1 695/10/1 696/7/1
f 697/6/1 698/9/1 699/10/1 700/7/1
f 701/6/1 702/9/1 703/10/1 704/7/1
f 705/6/1 706/9/1 707/10/1 708/7/1
f 709/6/1 710/9/1 711/10/1 712/7/1
f 713/6/1 714/9/1 715/10/1 716/7/1
f 717/6/1 718/9/1 719/10/1 720/7/1
f 721/6/1 722/9/1 723/10/1 724/7/1
f 725/6/1 726/9/1 727/10/1 728/7/1
f 729/6/1 730/9/1 731/10/1 732/7/1
f 733/6/1 734/9/1 735/10/1 736/7/1
f 737/9/1 738/11/1 739/12/1 740/10/1
f 741/13/1 742/14/1 743/15/1 744/16/1
f 745/6/1 746/9/1 747/10/1 748/7/1
f 749/6/1 750/9/1 751/10/1 752/7/1
f 753/6/1 754/9/1 755/10/1 756/7/1
f 757/6/1 758/9/1 759/10/1 760/7/1
f 761/6/1 762/9/1 763/10/1 764/7/1
f 765/6/1 766/9/1 767/10/1 768/7/1
f 769/6/1 770/9/1 771/10/1 772/7/1
f 773/6/1 774/9/1 775/10/1 776/7/1
f 777/6/1 778/9/1 779/10/1 780/7/1
f 781/6/1 782/9/1 783/10/1 784/7/1
f 785/6/1 786/9/1 787/10/1 788/7/1
f 789/6/1 790/9/1 791/10/1 792/7/1
f 793/6/1 794/9/1 795/10/1 796/7/1
f 797/6/1 798/9/1 799/10/1 800/7/1
f 801/9/1 802/11/1 803/12/1 804/10/1
f 805/13/1 806/14/1 807/15/1 808/16/1
f 809/6/1 810/9/1 811/10/1 812/7/1
f 813/6/1 814/9/1 815/10/1 816/7/1
f 817/6/1 818/9/1 819/10/1 820/7/1
f 821/6/1 822/9/1 823/10/1 824/7/1
f 825/6/1 826/9/1 827/10/1 828/7/1
f 829/6/1 830/9/1 831/10/1 832/7/1
f 833/6/1 834/9/1 835/10/1 836/7/1
f 837/6/1 838/9/1 839/10/1 840/7/1
f 841/6/1 842/9/1 843/10/1 844/7/1
f 845/6/1 846/9/1 847/10/1 848/7/1
f 849/6/1 850/9/1 851/10/1 852/7/1
f 853/6/1 854/9/1 855/10/1 856/7/1
f 857/6/1 858/9/1 859/10/1 860/7/1
f 861/6/1 862/9/1 863/10/1 864/7/1
f 865/9/1 866/11/1 867/12/1 868/10/1
f 869/13/1 870/14/1 871/15/1 872/16/1

