# Tiled2Unity generated file. Do not modify by hand.
# Wavefront file for 'Mapa_mesh_0119.obj'

# Vertices (Count = 20)
v 0 -7 0
v -1 -7 0
v -1 -6 0
v 0 -6 0
v -4 -7 0
v -5 -7 0
v -5 -6 0
v -4 -6 0
v -5 -7 0
v -6 -7 0
v -6 -6 0
v -5 -6 0
v -12 -8 0
v -13 -8 0
v -13 -7 0
v -12 -7 0
v -11 -10 0
v -12 -10 0
v -12 -9 0
v -11 -9 0

# Texture cooridinates (Count = 16)
vt 0 0.1428571
vt 0.0625 0.1428571
vt 0.0625 0.2142857
vt 0 0.2142857
vt 0 0.8571429
vt 0.0625 0.8571429
vt 0.0625 0.9285714
vt 0 0.9285714
vt 0.25 0.8571429
vt 0.3125 0.8571429
vt 0.3125 0.9285714
vt 0.25 0.9285714
vt 0.0625 1
vt 0 1
vt 0.0625 0.2857143
vt 0 0.2857143

# Normal
vn 0 0 -1

# Mesh description
g Mapa_mesh_0119

# Faces
f 1/1/1 2/2/1 3/3/1 4/4/1
f 5/5/1 6/6/1 7/7/1 8/8/1
f 9/9/1 10/10/1 11/11/1 12/12/1
f 13/8/1 14/7/1 15/13/1 16/14/1
f 17/4/1 18/3/1 19/15/1 20/16/1

