# Tiled2Unity generated file. Do not modify by hand.
# Wavefront file for 'Mapa_mesh_0109.obj'

# Vertices (Count = 16)
v -3 -6 0
v -4 -6 0
v -4 -5 0
v -3 -5 0
v -10 -7 0
v -11 -7 0
v -11 -6 0
v -10 -6 0
v -11 -7 0
v -12 -7 0
v -12 -6 0
v -11 -6 0
v -12 -7 0
v -13 -7 0
v -13 -6 0
v -12 -6 0

# Texture cooridinates (Count = 14)
vt 0 0.2142857
vt 0.0625 0.2142857
vt 0.0625 0.2857143
vt 0 0.2857143
vt 0.3125 0.9285714
vt 0.375 0.9285714
vt 0.375 1
vt 0.3125 1
vt 0.0625 0.8571429
vt 0.125 0.8571429
vt 0.125 0.9285714
vt 0.0625 0.9285714
vt 0.3125 0.8571429
vt 0.375 0.8571429

# Normal
vn 0 0 -1

# Mesh description
g Mapa_mesh_0109

# Faces
f 1/1/1 2/2/1 3/3/1 4/4/1
f 5/5/1 6/6/1 7/7/1 8/8/1
f 9/9/1 10/10/1 11/11/1 12/12/1
f 13/13/1 14/14/1 15/6/1 16/5/1

