# Tiled2Unity generated file. Do not modify by hand.
# Wavefront file for 'Mapa_mesh_0045.obj'

# Vertices (Count = 132)
v -8 -8 0
v -9 -8 0
v -9 -7 0
v -8 -7 0
v -9 -8 0
v -10 -8 0
v -10 -7 0
v -9 -7 0
v -10 -8 0
v -11 -8 0
v -11 -7 0
v -10 -7 0
v -11 -8 0
v -12 -8 0
v -12 -7 0
v -11 -7 0
v -9 -9 0
v -10 -9 0
v -10 -8 0
v -9 -8 0
v -10 -9 0
v -11 -9 0
v -11 -8 0
v -10 -8 0
v -11 -9 0
v -12 -9 0
v -12 -8 0
v -11 -8 0
v -9 -10 0
v -10 -10 0
v -10 -9 0
v -9 -9 0
v -10 -10 0
v -11 -10 0
v -11 -9 0
v -10 -9 0
v -11 -10 0
v -12 -10 0
v -12 -9 0
v -11 -9 0
v -9 -11 0
v -10 -11 0
v -10 -10 0
v -9 -10 0
v -10 -11 0
v -11 -11 0
v -11 -10 0
v -10 -10 0
v -11 -11 0
v -12 -11 0
v -12 -10 0
v -11 -10 0
v -8 -12 0
v -9 -12 0
v -9 -11 0
v -8 -11 0
v -9 -12 0
v -10 -12 0
v -10 -11 0
v -9 -11 0
v -10 -12 0
v -11 -12 0
v -11 -11 0
v -10 -11 0
v -11 -12 0
v -12 -12 0
v -12 -11 0
v -11 -11 0
v -8 -13 0
v -9 -13 0
v -9 -12 0
v -8 -12 0
v -9 -13 0
v -10 -13 0
v -10 -12 0
v -9 -12 0
v -10 -13 0
v -11 -13 0
v -11 -12 0
v -10 -12 0
v -11 -13 0
v -12 -13 0
v -12 -12 0
v -11 -12 0
v -8 -14 0
v -9 -14 0
v -9 -13 0
v -8 -13 0
v -9 -14 0
v -10 -14 0
v -10 -13 0
v -9 -13 0
v -10 -14 0
v -11 -14 0
v -11 -13 0
v -10 -13 0
v -11 -14 0
v -12 -14 0
v -12 -13 0
v -11 -13 0
v -8 -15 0
v -9 -15 0
v -9 -14 0
v -8 -14 0
v -9 -15 0
v -10 -15 0
v -10 -14 0
v -9 -14 0
v -10 -15 0
v -11 -15 0
v -11 -14 0
v -10 -14 0
v -11 -15 0
v -12 -15 0
v -12 -14 0
v -11 -14 0
v -8 -16 0
v -9 -16 0
v -9 -15 0
v -8 -15 0
v -9 -16 0
v -10 -16 0
v -10 -15 0
v -9 -15 0
v -10 -16 0
v -11 -16 0
v -11 -15 0
v -10 -15 0
v -11 -16 0
v -12 -16 0
v -12 -15 0
v -11 -15 0

# Texture cooridinates (Count = 18)
vt 0.5625 0.5714285
vt 0.625 0.5714285
vt 0.625 0.6428571
vt 0.5625 0.6428571
vt 0.0625 0.7142857
vt 0.125 0.7142857
vt 0.125 0.7857143
vt 0.0625 0.7857143
vt 0.1875 0.7142857
vt 0.1875 0.7857143
vt 0.0625 0.6428571
vt 0.125 0.6428571
vt 0.0625 0.4285714
vt 0.125 0.4285714
vt 0.125 0.5
vt 0.0625 0.5
vt 0.1875 0.4285714
vt 0.1875 0.5

# Normal
vn 0 0 -1

# Mesh description
g Mapa_mesh_0045

# Faces
f 1/1/1 2/2/1 3/3/1 4/4/1
f 5/5/1 6/6/1 7/7/1 8/8/1
f 9/6/1 10/9/1 11/10/1 12/7/1
f 13/6/1 14/9/1 15/10/1 16/7/1
f 17/11/1 18/12/1 19/6/1 20/5/1
f 21/13/1 22/14/1 23/15/1 24/16/1
f 25/14/1 26/17/1 27/18/1 28/15/1
f 29/11/1 30/12/1 31/6/1 32/5/1
f 33/13/1 34/14/1 35/15/1 36/16/1
f 37/14/1 38/17/1 39/18/1 40/15/1
f 41/11/1 42/12/1 43/6/1 44/5/1
f 45/13/1 46/14/1 47/15/1 48/16/1
f 49/14/1 50/17/1 51/18/1 52/15/1
f 53/5/1 54/6/1 55/7/1 56/8/1
f 57/6/1 58/9/1 59/10/1 60/7/1
f 61/6/1 62/9/1 63/10/1 64/7/1
f 65/6/1 66/9/1 67/10/1 68/7/1
f 69/11/1 70/12/1 71/6/1 72/5/1
f 73/13/1 74/14/1 75/15/1 76/16/1
f 77/14/1 78/17/1 79/18/1 80/15/1
f 81/14/1 82/17/1 83/18/1 84/15/1
f 85/11/1 86/12/1 87/6/1 88/5/1
f 89/13/1 90/14/1 91/15/1 92/16/1
f 93/14/1 94/17/1 95/18/1 96/15/1
f 97/14/1 98/17/1 99/18/1 100/15/1
f 101/11/1 102/12/1 103/6/1 104/5/1
f 105/13/1 106/14/1 107/15/1 108/16/1
f 109/14/1 110/17/1 111/18/1 112/15/1
f 113/14/1 114/17/1 115/18/1 116/15/1
f 117/11/1 118/12/1 119/6/1 120/5/1
f 121/13/1 122/14/1 123/15/1 124/16/1
f 125/14/1 126/17/1 127/18/1 128/15/1
f 129/14/1 130/17/1 131/18/1 132/15/1

