# Tiled2Unity generated file. Do not modify by hand.
# Wavefront file for 'Mapa_mesh_0080.obj'

# Vertices (Count = 768)
v -7 -1 0
v -8 -1 0
v -8 0 0
v -7 0 0
v -8 -1 0
v -9 -1 0
v -9 0 0
v -8 0 0
v -9 -1 0
v -10 -1 0
v -10 0 0
v -9 0 0
v -10 -1 0
v -11 -1 0
v -11 0 0
v -10 0 0
v -11 -1 0
v -12 -1 0
v -12 0 0
v -11 0 0
v -12 -1 0
v -13 -1 0
v -13 0 0
v -12 0 0
v -13 -1 0
v -14 -1 0
v -14 0 0
v -13 0 0
v -14 -1 0
v -15 -1 0
v -15 0 0
v -14 0 0
v -15 -1 0
v -16 -1 0
v -16 0 0
v -15 0 0
v -3 -2 0
v -4 -2 0
v -4 -1 0
v -3 -1 0
v -4 -2 0
v -5 -2 0
v -5 -1 0
v -4 -1 0
v -5 -2 0
v -6 -2 0
v -6 -1 0
v -5 -1 0
v -6 -2 0
v -7 -2 0
v -7 -1 0
v -6 -1 0
v -7 -2 0
v -8 -2 0
v -8 -1 0
v -7 -1 0
v -8 -2 0
v -9 -2 0
v -9 -1 0
v -8 -1 0
v -9 -2 0
v -10 -2 0
v -10 -1 0
v -9 -1 0
v -10 -2 0
v -11 -2 0
v -11 -1 0
v -10 -1 0
v -11 -2 0
v -12 -2 0
v -12 -1 0
v -11 -1 0
v -12 -2 0
v -13 -2 0
v -13 -1 0
v -12 -1 0
v -13 -2 0
v -14 -2 0
v -14 -1 0
v -13 -1 0
v -14 -2 0
v -15 -2 0
v -15 -1 0
v -14 -1 0
v -15 -2 0
v -16 -2 0
v -16 -1 0
v -15 -1 0
v 0 -3 0
v -1 -3 0
v -1 -2 0
v 0 -2 0
v -1 -3 0
v -2 -3 0
v -2 -2 0
v -1 -2 0
v -2 -3 0
v -3 -3 0
v -3 -2 0
v -2 -2 0
v -3 -3 0
v -4 -3 0
v -4 -2 0
v -3 -2 0
v -4 -3 0
v -5 -3 0
v -5 -2 0
v -4 -2 0
v -5 -3 0
v -6 -3 0
v -6 -2 0
v -5 -2 0
v -6 -3 0
v -7 -3 0
v -7 -2 0
v -6 -2 0
v -7 -3 0
v -8 -3 0
v -8 -2 0
v -7 -2 0
v -8 -3 0
v -9 -3 0
v -9 -2 0
v -8 -2 0
v -9 -3 0
v -10 -3 0
v -10 -2 0
v -9 -2 0
v -10 -3 0
v -11 -3 0
v -11 -2 0
v -10 -2 0
v -11 -3 0
v -12 -3 0
v -12 -2 0
v -11 -2 0
v -12 -3 0
v -13 -3 0
v -13 -2 0
v -12 -2 0
v -13 -3 0
v -14 -3 0
v -14 -2 0
v -13 -2 0
v -14 -3 0
v -15 -3 0
v -15 -2 0
v -14 -2 0
v -15 -3 0
v -16 -3 0
v -16 -2 0
v -15 -2 0
v 0 -4 0
v -1 -4 0
v -1 -3 0
v 0 -3 0
v -3 -4 0
v -4 -4 0
v -4 -3 0
v -3 -3 0
v -4 -4 0
v -5 -4 0
v -5 -3 0
v -4 -3 0
v -5 -4 0
v -6 -4 0
v -6 -3 0
v -5 -3 0
v -6 -4 0
v -7 -4 0
v -7 -3 0
v -6 -3 0
v -7 -4 0
v -8 -4 0
v -8 -3 0
v -7 -3 0
v -8 -4 0
v -9 -4 0
v -9 -3 0
v -8 -3 0
v -9 -4 0
v -10 -4 0
v -10 -3 0
v -9 -3 0
v -10 -4 0
v -11 -4 0
v -11 -3 0
v -10 -3 0
v -11 -4 0
v -12 -4 0
v -12 -3 0
v -11 -3 0
v -12 -4 0
v -13 -4 0
v -13 -3 0
v -12 -3 0
v -13 -4 0
v -14 -4 0
v -14 -3 0
v -13 -3 0
v -14 -4 0
v -15 -4 0
v -15 -3 0
v -14 -3 0
v -15 -4 0
v -16 -4 0
v -16 -3 0
v -15 -3 0
v 0 -5 0
v -1 -5 0
v -1 -4 0
v 0 -4 0
v -3 -5 0
v -4 -5 0
v -4 -4 0
v -3 -4 0
v -4 -5 0
v -5 -5 0
v -5 -4 0
v -4 -4 0
v -5 -5 0
v -6 -5 0
v -6 -4 0
v -5 -4 0
v -6 -5 0
v -7 -5 0
v -7 -4 0
v -6 -4 0
v -7 -5 0
v -8 -5 0
v -8 -4 0
v -7 -4 0
v -8 -5 0
v -9 -5 0
v -9 -4 0
v -8 -4 0
v -9 -5 0
v -10 -5 0
v -10 -4 0
v -9 -4 0
v -10 -5 0
v -11 -5 0
v -11 -4 0
v -10 -4 0
v -11 -5 0
v -12 -5 0
v -12 -4 0
v -11 -4 0
v -12 -5 0
v -13 -5 0
v -13 -4 0
v -12 -4 0
v -13 -5 0
v -14 -5 0
v -14 -4 0
v -13 -4 0
v -14 -5 0
v -15 -5 0
v -15 -4 0
v -14 -4 0
v -15 -5 0
v -16 -5 0
v -16 -4 0
v -15 -4 0
v 0 -6 0
v -1 -6 0
v -1 -5 0
v 0 -5 0
v -3 -6 0
v -4 -6 0
v -4 -5 0
v -3 -5 0
v -4 -6 0
v -5 -6 0
v -5 -5 0
v -4 -5 0
v -5 -6 0
v -6 -6 0
v -6 -5 0
v -5 -5 0
v -6 -6 0
v -7 -6 0
v -7 -5 0
v -6 -5 0
v -7 -6 0
v -8 -6 0
v -8 -5 0
v -7 -5 0
v -8 -6 0
v -9 -6 0
v -9 -5 0
v -8 -5 0
v -9 -6 0
v -10 -6 0
v -10 -5 0
v -9 -5 0
v -10 -6 0
v -11 -6 0
v -11 -5 0
v -10 -5 0
v -11 -6 0
v -12 -6 0
v -12 -5 0
v -11 -5 0
v -12 -6 0
v -13 -6 0
v -13 -5 0
v -12 -5 0
v -13 -6 0
v -14 -6 0
v -14 -5 0
v -13 -5 0
v -14 -6 0
v -15 -6 0
v -15 -5 0
v -14 -5 0
v -15 -6 0
v -16 -6 0
v -16 -5 0
v -15 -5 0
v 0 -7 0
v -1 -7 0
v -1 -6 0
v 0 -6 0
v -3 -7 0
v -4 -7 0
v -4 -6 0
v -3 -6 0
v -4 -7 0
v -5 -7 0
v -5 -6 0
v -4 -6 0
v -5 -7 0
v -6 -7 0
v -6 -6 0
v -5 -6 0
v -6 -7 0
v -7 -7 0
v -7 -6 0
v -6 -6 0
v -7 -7 0
v -8 -7 0
v -8 -6 0
v -7 -6 0
v -8 -7 0
v -9 -7 0
v -9 -6 0
v -8 -6 0
v -9 -7 0
v -10 -7 0
v -10 -6 0
v -9 -6 0
v -10 -7 0
v -11 -7 0
v -11 -6 0
v -10 -6 0
v -11 -7 0
v -12 -7 0
v -12 -6 0
v -11 -6 0
v -12 -7 0
v -13 -7 0
v -13 -6 0
v -12 -6 0
v -13 -7 0
v -14 -7 0
v -14 -6 0
v -13 -6 0
v -14 -7 0
v -15 -7 0
v -15 -6 0
v -14 -6 0
v -15 -7 0
v -16 -7 0
v -16 -6 0
v -15 -6 0
v 0 -8 0
v -1 -8 0
v -1 -7 0
v 0 -7 0
v -3 -8 0
v -4 -8 0
v -4 -7 0
v -3 -7 0
v -4 -8 0
v -5 -8 0
v -5 -7 0
v -4 -7 0
v -5 -8 0
v -6 -8 0
v -6 -7 0
v -5 -7 0
v -6 -8 0
v -7 -8 0
v -7 -7 0
v -6 -7 0
v -7 -8 0
v -8 -8 0
v -8 -7 0
v -7 -7 0
v -8 -8 0
v -9 -8 0
v -9 -7 0
v -8 -7 0
v -9 -8 0
v -10 -8 0
v -10 -7 0
v -9 -7 0
v -10 -8 0
v -11 -8 0
v -11 -7 0
v -10 -7 0
v -11 -8 0
v -12 -8 0
v -12 -7 0
v -11 -7 0
v -12 -8 0
v -13 -8 0
v -13 -7 0
v -12 -7 0
v -13 -8 0
v -14 -8 0
v -14 -7 0
v -13 -7 0
v -14 -8 0
v -15 -8 0
v -15 -7 0
v -14 -7 0
v -15 -8 0
v -16 -8 0
v -16 -7 0
v -15 -7 0
v 0 -9 0
v -1 -9 0
v -1 -8 0
v 0 -8 0
v -3 -9 0
v -4 -9 0
v -4 -8 0
v -3 -8 0
v -4 -9 0
v -5 -9 0
v -5 -8 0
v -4 -8 0
v -5 -9 0
v -6 -9 0
v -6 -8 0
v -5 -8 0
v -6 -9 0
v -7 -9 0
v -7 -8 0
v -6 -8 0
v -7 -9 0
v -8 -9 0
v -8 -8 0
v -7 -8 0
v -8 -9 0
v -9 -9 0
v -9 -8 0
v -8 -8 0
v -9 -9 0
v -10 -9 0
v -10 -8 0
v -9 -8 0
v -10 -9 0
v -11 -9 0
v -11 -8 0
v -10 -8 0
v -11 -9 0
v -12 -9 0
v -12 -8 0
v -11 -8 0
v -12 -9 0
v -13 -9 0
v -13 -8 0
v -12 -8 0
v -13 -9 0
v -14 -9 0
v -14 -8 0
v -13 -8 0
v -14 -9 0
v -15 -9 0
v -15 -8 0
v -14 -8 0
v -15 -9 0
v -16 -9 0
v -16 -8 0
v -15 -8 0
v 0 -10 0
v -1 -10 0
v -1 -9 0
v 0 -9 0
v -3 -10 0
v -4 -10 0
v -4 -9 0
v -3 -9 0
v -4 -10 0
v -5 -10 0
v -5 -9 0
v -4 -9 0
v -5 -10 0
v -6 -10 0
v -6 -9 0
v -5 -9 0
v -6 -10 0
v -7 -10 0
v -7 -9 0
v -6 -9 0
v -7 -10 0
v -8 -10 0
v -8 -9 0
v -7 -9 0
v -8 -10 0
v -9 -10 0
v -9 -9 0
v -8 -9 0
v -9 -10 0
v -10 -10 0
v -10 -9 0
v -9 -9 0
v -10 -10 0
v -11 -10 0
v -11 -9 0
v -10 -9 0
v -11 -10 0
v -12 -10 0
v -12 -9 0
v -11 -9 0
v -12 -10 0
v -13 -10 0
v -13 -9 0
v -12 -9 0
v -13 -10 0
v -14 -10 0
v -14 -9 0
v -13 -9 0
v -14 -10 0
v -15 -10 0
v -15 -9 0
v -14 -9 0
v -15 -10 0
v -16 -10 0
v -16 -9 0
v -15 -9 0
v 0 -11 0
v -1 -11 0
v -1 -10 0
v 0 -10 0
v -3 -11 0
v -4 -11 0
v -4 -10 0
v -3 -10 0
v -4 -11 0
v -5 -11 0
v -5 -10 0
v -4 -10 0
v -5 -11 0
v -6 -11 0
v -6 -10 0
v -5 -10 0
v -6 -11 0
v -7 -11 0
v -7 -10 0
v -6 -10 0
v -7 -11 0
v -8 -11 0
v -8 -10 0
v -7 -10 0
v -8 -11 0
v -9 -11 0
v -9 -10 0
v -8 -10 0
v -9 -11 0
v -10 -11 0
v -10 -10 0
v -9 -10 0
v -10 -11 0
v -11 -11 0
v -11 -10 0
v -10 -10 0
v -11 -11 0
v -12 -11 0
v -12 -10 0
v -11 -10 0
v -12 -11 0
v -13 -11 0
v -13 -10 0
v -12 -10 0
v -13 -11 0
v -14 -11 0
v -14 -10 0
v -13 -10 0
v -14 -11 0
v -15 -11 0
v -15 -10 0
v -14 -10 0
v -15 -11 0
v -16 -11 0
v -16 -10 0
v -15 -10 0
v 0 -12 0
v -1 -12 0
v -1 -11 0
v 0 -11 0
v -3 -12 0
v -4 -12 0
v -4 -11 0
v -3 -11 0
v -4 -12 0
v -5 -12 0
v -5 -11 0
v -4 -11 0
v -5 -12 0
v -6 -12 0
v -6 -11 0
v -5 -11 0
v -6 -12 0
v -7 -12 0
v -7 -11 0
v -6 -11 0
v -7 -12 0
v -8 -12 0
v -8 -11 0
v -7 -11 0
v -8 -12 0
v -9 -12 0
v -9 -11 0
v -8 -11 0
v -9 -12 0
v -10 -12 0
v -10 -11 0
v -9 -11 0
v -10 -12 0
v -11 -12 0
v -11 -11 0
v -10 -11 0
v -11 -12 0
v -12 -12 0
v -12 -11 0
v -11 -11 0
v -12 -12 0
v -13 -12 0
v -13 -11 0
v -12 -11 0
v -13 -12 0
v -14 -12 0
v -14 -11 0
v -13 -11 0
v -14 -12 0
v -15 -12 0
v -15 -11 0
v -14 -11 0
v -15 -12 0
v -16 -12 0
v -16 -11 0
v -15 -11 0
v 0 -13 0
v -1 -13 0
v -1 -12 0
v 0 -12 0
v -3 -13 0
v -4 -13 0
v -4 -12 0
v -3 -12 0
v -4 -13 0
v -5 -13 0
v -5 -12 0
v -4 -12 0
v -5 -13 0
v -6 -13 0
v -6 -12 0
v -5 -12 0
v -6 -13 0
v -7 -13 0
v -7 -12 0
v -6 -12 0
v -7 -13 0
v -8 -13 0
v -8 -12 0
v -7 -12 0
v -8 -13 0
v -9 -13 0
v -9 -12 0
v -8 -12 0
v -9 -13 0
v -10 -13 0
v -10 -12 0
v -9 -12 0
v -10 -13 0
v -11 -13 0
v -11 -12 0
v -10 -12 0
v -11 -13 0
v -12 -13 0
v -12 -12 0
v -11 -12 0
v -12 -13 0
v -13 -13 0
v -13 -12 0
v -12 -12 0
v -13 -13 0
v -14 -13 0
v -14 -12 0
v -13 -12 0
v -14 -13 0
v -15 -13 0
v -15 -12 0
v -14 -12 0
v -15 -13 0
v -16 -13 0
v -16 -12 0
v -15 -12 0
v 0 -14 0
v -1 -14 0
v -1 -13 0
v 0 -13 0
v -3 -14 0
v -4 -14 0
v -4 -13 0
v -3 -13 0
v -4 -14 0
v -5 -14 0
v -5 -13 0
v -4 -13 0
v -5 -14 0
v -6 -14 0
v -6 -13 0
v -5 -13 0
v -6 -14 0
v -7 -14 0
v -7 -13 0
v -6 -13 0
v -7 -14 0
v -8 -14 0
v -8 -13 0
v -7 -13 0
v -8 -14 0
v -9 -14 0
v -9 -13 0
v -8 -13 0
v -9 -14 0
v -10 -14 0
v -10 -13 0
v -9 -13 0
v -10 -14 0
v -11 -14 0
v -11 -13 0
v -10 -13 0
v -11 -14 0
v -12 -14 0
v -12 -13 0
v -11 -13 0
v -12 -14 0
v -13 -14 0
v -13 -13 0
v -12 -13 0
v -13 -14 0
v -14 -14 0
v -14 -13 0
v -13 -13 0
v -14 -14 0
v -15 -14 0
v -15 -13 0
v -14 -13 0
v -15 -14 0
v -16 -14 0
v -16 -13 0
v -15 -13 0

# Texture cooridinates (Count = 29)
vt 0.0625 0.6428571
vt 0.125 0.6428571
vt 0.125 0.7142857
vt 0.0625 0.7142857
vt 0.1875 0.6428571
vt 0.1875 0.7142857
vt 0.0625 0.4285714
vt 0.125 0.4285714
vt 0.125 0.5
vt 0.0625 0.5
vt 0.1875 0.4285714
vt 0.1875 0.5
vt 0.25 0.4285714
vt 0.25 0.5
vt 0.25 0.6428571
vt 0.25 0.7142857
vt 0.125 0.7857143
vt 0.0625 0.7857143
vt 0.1875 0.7857143
vt 0.375 0.6428571
vt 0.4375 0.6428571
vt 0.4375 0.7142857
vt 0.375 0.7142857
vt 0.25 0.5714285
vt 0.1875 0.5714285
vt 0.125 0.5714285
vt 0.0625 0.5714285
vt 0.3125 0.6428571
vt 0.3125 0.7142857

# Normal
vn 0 0 -1

# Mesh description
g Mapa_mesh_0080

# Faces
f 1/1/1 2/2/1 3/3/1 4/4/1
f 5/2/1 6/5/1 7/6/1 8/3/1
f 9/7/1 10/8/1 11/9/1 12/10/1
f 13/8/1 14/11/1 15/12/1 16/9/1
f 17/8/1 18/11/1 19/12/1 20/9/1
f 21/8/1 22/11/1 23/12/1 24/9/1
f 25/8/1 26/11/1 27/12/1 28/9/1
f 29/11/1 30/13/1 31/14/1 32/12/1
f 33/5/1 34/15/1 35/16/1 36/6/1
f 37/4/1 38/3/1 39/17/1 40/18/1
f 41/3/1 42/6/1 43/19/1 44/17/1
f 45/3/1 46/6/1 47/19/1 48/17/1
f 49/3/1 50/6/1 51/19/1 52/17/1
f 53/20/1 54/21/1 55/22/1 56/23/1
f 57/2/1 58/5/1 59/6/1 60/3/1
f 61/7/1 62/8/1 63/9/1 64/10/1
f 65/8/1 66/11/1 67/12/1 68/9/1
f 69/8/1 70/11/1 71/12/1 72/9/1
f 73/8/1 74/11/1 75/12/1 76/9/1
f 77/8/1 78/11/1 79/12/1 80/9/1
f 81/11/1 82/13/1 83/14/1 84/12/1
f 85/5/1 86/15/1 87/16/1 88/6/1
f 89/3/1 90/6/1 91/19/1 92/17/1
f 93/3/1 94/6/1 95/19/1 96/17/1
f 97/3/1 98/6/1 99/19/1 100/17/1
f 101/20/1 102/21/1 103/22/1 104/23/1
f 105/2/1 106/5/1 107/6/1 108/3/1
f 109/2/1 110/5/1 111/6/1 112/3/1
f 113/2/1 114/5/1 115/6/1 116/3/1
f 117/2/1 118/5/1 119/6/1 120/3/1
f 121/2/1 122/5/1 123/6/1 124/3/1
f 125/7/1 126/8/1 127/9/1 128/10/1
f 129/8/1 130/11/1 131/12/1 132/9/1
f 133/8/1 134/11/1 135/12/1 136/9/1
f 137/8/1 138/11/1 139/12/1 140/9/1
f 141/8/1 142/11/1 143/12/1 144/9/1
f 145/11/1 146/13/1 147/14/1 148/12/1
f 149/5/1 150/15/1 151/16/1 152/6/1
f 153/12/1 154/14/1 155/24/1 156/25/1
f 157/10/1 158/9/1 159/26/1 160/27/1
f 161/9/1 162/12/1 163/25/1 164/26/1
f 165/9/1 166/12/1 167/25/1 168/26/1
f 169/9/1 170/12/1 171/25/1 172/26/1
f 173/9/1 174/12/1 175/25/1 176/26/1
f 177/9/1 178/12/1 179/25/1 180/26/1
f 181/8/1 182/11/1 183/12/1 184/9/1
f 185/8/1 186/11/1 187/12/1 188/9/1
f 189/8/1 190/11/1 191/12/1 192/9/1
f 193/8/1 194/11/1 195/12/1 196/9/1
f 197/8/1 198/11/1 199/12/1 200/9/1
f 201/11/1 202/13/1 203/14/1 204/12/1
f 205/5/1 206/15/1 207/16/1 208/6/1
f 209/11/1 210/13/1 211/14/1 212/12/1
f 213/7/1 214/8/1 215/9/1 216/10/1
f 217/8/1 218/11/1 219/12/1 220/9/1
f 221/8/1 222/11/1 223/12/1 224/9/1
f 225/8/1 226/11/1 227/12/1 228/9/1
f 229/8/1 230/11/1 231/12/1 232/9/1
f 233/8/1 234/11/1 235/12/1 236/9/1
f 237/8/1 238/11/1 239/12/1 240/9/1
f 241/8/1 242/11/1 243/12/1 244/9/1
f 245/8/1 246/11/1 247/12/1 248/9/1
f 249/8/1 250/11/1 251/12/1 252/9/1
f 253/8/1 254/11/1 255/12/1 256/9/1
f 257/11/1 258/13/1 259/14/1 260/12/1
f 261/28/1 262/20/1 263/23/1 264/29/1
f 265/11/1 266/13/1 267/14/1 268/12/1
f 269/7/1 270/8/1 271/9/1 272/10/1
f 273/8/1 274/11/1 275/12/1 276/9/1
f 277/8/1 278/11/1 279/12/1 280/9/1
f 281/8/1 282/11/1 283/12/1 284/9/1
f 285/8/1 286/11/1 287/12/1 288/9/1
f 289/8/1 290/11/1 291/12/1 292/9/1
f 293/8/1 294/11/1 295/12/1 296/9/1
f 297/8/1 298/11/1 299/12/1 300/9/1
f 301/8/1 302/11/1 303/12/1 304/9/1
f 305/8/1 306/11/1 307/12/1 308/9/1
f 309/8/1 310/11/1 311/12/1 312/9/1
f 313/8/1 314/11/1 315/12/1 316/9/1
f 317/12/1 318/14/1 319/24/1 320/25/1
f 321/11/1 322/13/1 323/14/1 324/12/1
f 325/7/1 326/8/1 327/9/1 328/10/1
f 329/8/1 330/11/1 331/12/1 332/9/1
f 333/8/1 334/11/1 335/12/1 336/9/1
f 337/8/1 338/11/1 339/12/1 340/9/1
f 341/8/1 342/11/1 343/12/1 344/9/1
f 345/8/1 346/11/1 347/12/1 348/9/1
f 349/8/1 350/11/1 351/12/1 352/9/1
f 353/8/1 354/11/1 355/12/1 356/9/1
f 357/8/1 358/11/1 359/12/1 360/9/1
f 361/8/1 362/11/1 363/12/1 364/9/1
f 365/8/1 366/11/1 367/12/1 368/9/1
f 369/8/1 370/11/1 371/12/1 372/9/1
f 373/8/1 374/11/1 375/12/1 376/9/1
f 377/11/1 378/13/1 379/14/1 380/12/1
f 381/7/1 382/8/1 383/9/1 384/10/1
f 385/8/1 386/11/1 387/12/1 388/9/1
f 389/8/1 390/11/1 391/12/1 392/9/1
f 393/8/1 394/11/1 395/12/1 396/9/1
f 397/8/1 398/11/1 399/12/1 400/9/1
f 401/8/1 402/11/1 403/12/1 404/9/1
f 405/8/1 406/11/1 407/12/1 408/9/1
f 409/8/1 410/11/1 411/12/1 412/9/1
f 413/8/1 414/11/1 415/12/1 416/9/1
f 417/8/1 418/11/1 419/12/1 420/9/1
f 421/8/1 422/11/1 423/12/1 424/9/1
f 425/8/1 426/11/1 427/12/1 428/9/1
f 429/8/1 430/11/1 431/12/1 432/9/1
f 433/11/1 434/13/1 435/14/1 436/12/1
f 437/7/1 438/8/1 439/9/1 440/10/1
f 441/8/1 442/11/1 443/12/1 444/9/1
f 445/8/1 446/11/1 447/12/1 448/9/1
f 449/8/1 450/11/1 451/12/1 452/9/1
f 453/8/1 454/11/1 455/12/1 456/9/1
f 457/8/1 458/11/1 459/12/1 460/9/1
f 461/8/1 462/11/1 463/12/1 464/9/1
f 465/8/1 466/11/1 467/12/1 468/9/1
f 469/8/1 470/11/1 471/12/1 472/9/1
f 473/8/1 474/11/1 475/12/1 476/9/1
f 477/8/1 478/11/1 479/12/1 480/9/1
f 481/8/1 482/11/1 483/12/1 484/9/1
f 485/8/1 486/11/1 487/12/1 488/9/1
f 489/11/1 490/13/1 491/14/1 492/12/1
f 493/7/1 494/8/1 495/9/1 496/10/1
f 497/8/1 498/11/1 499/12/1 500/9/1
f 501/8/1 502/11/1 503/12/1 504/9/1
f 505/8/1 506/11/1 507/12/1 508/9/1
f 509/8/1 510/11/1 511/12/1 512/9/1
f 513/8/1 514/11/1 515/12/1 516/9/1
f 517/8/1 518/11/1 519/12/1 520/9/1
f 521/8/1 522/11/1 523/12/1 524/9/1
f 525/8/1 526/11/1 527/12/1 528/9/1
f 529/8/1 530/11/1 531/12/1 532/9/1
f 533/8/1 534/11/1 535/12/1 536/9/1
f 537/8/1 538/11/1 539/12/1 540/9/1
f 541/8/1 542/11/1 543/12/1 544/9/1
f 545/11/1 546/13/1 547/14/1 548/12/1
f 549/7/1 550/8/1 551/9/1 552/10/1
f 553/8/1 554/11/1 555/12/1 556/9/1
f 557/8/1 558/11/1 559/12/1 560/9/1
f 561/8/1 562/11/1 563/12/1 564/9/1
f 565/8/1 566/11/1 567/12/1 568/9/1
f 569/8/1 570/11/1 571/12/1 572/9/1
f 573/8/1 574/11/1 575/12/1 576/9/1
f 577/8/1 578/11/1 579/12/1 580/9/1
f 581/8/1 582/11/1 583/12/1 584/9/1
f 585/8/1 586/11/1 587/12/1 588/9/1
f 589/8/1 590/11/1 591/12/1 592/9/1
f 593/8/1 594/11/1 595/12/1 596/9/1
f 597/8/1 598/11/1 599/12/1 600/9/1
f 601/11/1 602/13/1 603/14/1 604/12/1
f 605/7/1 606/8/1 607/9/1 608/10/1
f 609/8/1 610/11/1 611/12/1 612/9/1
f 613/8/1 614/11/1 615/12/1 616/9/1
f 617/8/1 618/11/1 619/12/1 620/9/1
f 621/8/1 622/11/1 623/12/1 624/9/1
f 625/8/1 626/11/1 627/12/1 628/9/1
f 629/8/1 630/11/1 631/12/1 632/9/1
f 633/8/1 634/11/1 635/12/1 636/9/1
f 637/8/1 638/11/1 639/12/1 640/9/1
f 641/8/1 642/11/1 643/12/1 644/9/1
f 645/8/1 646/11/1 647/12/1 648/9/1
f 649/8/1 650/11/1 651/12/1 652/9/1
f 653/8/1 654/11/1 655/12/1 656/9/1
f 657/11/1 658/13/1 659/14/1 660/12/1
f 661/7/1 662/8/1 663/9/1 664/10/1
f 665/8/1 666/11/1 667/12/1 668/9/1
f 669/8/1 670/11/1 671/12/1 672/9/1
f 673/8/1 674/11/1 675/12/1 676/9/1
f 677/8/1 678/11/1 679/12/1 680/9/1
f 681/8/1 682/11/1 683/12/1 684/9/1
f 685/8/1 686/11/1 687/12/1 688/9/1
f 689/8/1 690/11/1 691/12/1 692/9/1
f 693/8/1 694/11/1 695/12/1 696/9/1
f 697/8/1 698/11/1 699/12/1 700/9/1
f 701/8/1 702/11/1 703/12/1 704/9/1
f 705/8/1 706/11/1 707/12/1 708/9/1
f 709/8/1 710/11/1 711/12/1 712/9/1
f 713/11/1 714/13/1 715/14/1 716/12/1
f 717/7/1 718/8/1 719/9/1 720/10/1
f 721/8/1 722/11/1 723/12/1 724/9/1
f 725/8/1 726/11/1 727/12/1 728/9/1
f 729/8/1 730/11/1 731/12/1 732/9/1
f 733/8/1 734/11/1 735/12/1 736/9/1
f 737/8/1 738/11/1 739/12/1 740/9/1
f 741/8/1 742/11/1 743/12/1 744/9/1
f 745/8/1 746/11/1 747/12/1 748/9/1
f 749/8/1 750/11/1 751/12/1 752/9/1
f 753/8/1 754/11/1 755/12/1 756/9/1
f 757/8/1 758/11/1 759/12/1 760/9/1
f 761/8/1 762/11/1 763/12/1 764/9/1
f 765/8/1 766/11/1 767/12/1 768/9/1

