# Tiled2Unity generated file. Do not modify by hand.
# Wavefront file for 'Mapa_mesh_0061.obj'

# Vertices (Count = 192)
v -4 -4 0
v -5 -4 0
v -5 -3 0
v -4 -3 0
v -13 -5 0
v -14 -5 0
v -14 -4 0
v -13 -4 0
v -14 -5 0
v -15 -5 0
v -15 -4 0
v -14 -4 0
v -15 -5 0
v -16 -5 0
v -16 -4 0
v -15 -4 0
v -13 -6 0
v -14 -6 0
v -14 -5 0
v -13 -5 0
v -14 -6 0
v -15 -6 0
v -15 -5 0
v -14 -5 0
v -15 -6 0
v -16 -6 0
v -16 -5 0
v -15 -5 0
v -2 -7 0
v -3 -7 0
v -3 -6 0
v -2 -6 0
v -9 -7 0
v -10 -7 0
v -10 -6 0
v -9 -6 0
v -10 -7 0
v -11 -7 0
v -11 -6 0
v -10 -6 0
v -11 -7 0
v -12 -7 0
v -12 -6 0
v -11 -6 0
v -12 -7 0
v -13 -7 0
v -13 -6 0
v -12 -6 0
v -13 -7 0
v -14 -7 0
v -14 -6 0
v -13 -6 0
v -14 -7 0
v -15 -7 0
v -15 -6 0
v -14 -6 0
v -15 -7 0
v -16 -7 0
v -16 -6 0
v -15 -6 0
v -9 -8 0
v -10 -8 0
v -10 -7 0
v -9 -7 0
v -10 -8 0
v -11 -8 0
v -11 -7 0
v -10 -7 0
v -11 -8 0
v -12 -8 0
v -12 -7 0
v -11 -7 0
v -12 -8 0
v -13 -8 0
v -13 -7 0
v -12 -7 0
v -13 -8 0
v -14 -8 0
v -14 -7 0
v -13 -7 0
v -14 -8 0
v -15 -8 0
v -15 -7 0
v -14 -7 0
v -15 -8 0
v -16 -8 0
v -16 -7 0
v -15 -7 0
v -11 -9 0
v -12 -9 0
v -12 -8 0
v -11 -8 0
v -12 -9 0
v -13 -9 0
v -13 -8 0
v -12 -8 0
v -13 -9 0
v -14 -9 0
v -14 -8 0
v -13 -8 0
v -14 -9 0
v -15 -9 0
v -15 -8 0
v -14 -8 0
v -15 -9 0
v -16 -9 0
v -16 -8 0
v -15 -8 0
v -13 -10 0
v -14 -10 0
v -14 -9 0
v -13 -9 0
v -14 -10 0
v -15 -10 0
v -15 -9 0
v -14 -9 0
v -15 -10 0
v -16 -10 0
v -16 -9 0
v -15 -9 0
v -13 -11 0
v -14 -11 0
v -14 -10 0
v -13 -10 0
v -14 -11 0
v -15 -11 0
v -15 -10 0
v -14 -10 0
v -15 -11 0
v -16 -11 0
v -16 -10 0
v -15 -10 0
v -13 -12 0
v -14 -12 0
v -14 -11 0
v -13 -11 0
v -14 -12 0
v -15 -12 0
v -15 -11 0
v -14 -11 0
v -15 -12 0
v -16 -12 0
v -16 -11 0
v -15 -11 0
v -13 -13 0
v -14 -13 0
v -14 -12 0
v -13 -12 0
v -14 -13 0
v -15 -13 0
v -15 -12 0
v -14 -12 0
v -15 -13 0
v -16 -13 0
v -16 -12 0
v -15 -12 0
v -13 -14 0
v -14 -14 0
v -14 -13 0
v -13 -13 0
v -14 -14 0
v -15 -14 0
v -15 -13 0
v -14 -13 0
v -15 -14 0
v -16 -14 0
v -16 -13 0
v -15 -13 0
v -13 -15 0
v -14 -15 0
v -14 -14 0
v -13 -14 0
v -14 -15 0
v -15 -15 0
v -15 -14 0
v -14 -14 0
v -15 -15 0
v -16 -15 0
v -16 -14 0
v -15 -14 0
v -13 -16 0
v -14 -16 0
v -14 -15 0
v -13 -15 0
v -14 -16 0
v -15 -16 0
v -15 -15 0
v -14 -15 0
v -15 -16 0
v -16 -16 0
v -16 -15 0
v -15 -15 0

# Texture cooridinates (Count = 30)
vt 0.25 0.7857143
vt 0.3125 0.7857143
vt 0.3125 0.8571429
vt 0.25 0.8571429
vt 0.0625 0.7142857
vt 0.125 0.7142857
vt 0.125 0.7857143
vt 0.0625 0.7857143
vt 0.1875 0.7142857
vt 0.1875 0.7857143
vt 0.0625 0.6428571
vt 0.125 0.6428571
vt 0.0625 0.5
vt 0.125 0.5
vt 0.125 0.5714285
vt 0.0625 0.5714285
vt 0.1875 0.5
vt 0.1875 0.5714285
vt 0.375 0.6428571
vt 0.4375 0.6428571
vt 0.4375 0.7142857
vt 0.375 0.7142857
vt 0.0625 0.4285714
vt 0.125 0.4285714
vt 0.1875 0.4285714
vt 0.1875 0.6428571
vt 0.375 0.7857143
vt 0.4375 0.7857143
vt 0.4375 0.8571429
vt 0.375 0.8571429

# Normal
vn 0 0 -1

# Mesh description
g Mapa_mesh_0061

# Faces
f 1/1/1 2/2/1 3/3/1 4/4/1
f 5/5/1 6/6/1 7/7/1 8/8/1
f 9/6/1 10/9/1 11/10/1 12/7/1
f 13/6/1 14/9/1 15/10/1 16/7/1
f 17/11/1 18/12/1 19/6/1 20/5/1
f 21/13/1 22/14/1 23/15/1 24/16/1
f 25/14/1 26/17/1 27/18/1 28/15/1
f 29/1/1 30/2/1 31/3/1 32/4/1
f 33/5/1 34/6/1 35/7/1 36/8/1
f 37/6/1 38/9/1 39/10/1 40/7/1
f 41/6/1 42/9/1 43/10/1 44/7/1
f 45/6/1 46/9/1 47/10/1 48/7/1
f 49/19/1 50/20/1 51/21/1 52/22/1
f 53/23/1 54/24/1 55/14/1 56/13/1
f 57/24/1 58/25/1 59/17/1 60/14/1
f 61/16/1 62/15/1 63/12/1 64/11/1
f 65/15/1 66/18/1 67/26/1 68/12/1
f 69/27/1 70/28/1 71/29/1 72/30/1
f 73/12/1 74/26/1 75/9/1 76/6/1
f 77/12/1 78/26/1 79/9/1 80/6/1
f 81/23/1 82/24/1 83/14/1 84/13/1
f 85/24/1 86/25/1 87/17/1 88/14/1
f 89/16/1 90/15/1 91/12/1 92/11/1
f 93/15/1 94/18/1 95/26/1 96/12/1
f 97/27/1 98/28/1 99/29/1 100/30/1
f 101/23/1 102/24/1 103/14/1 104/13/1
f 105/24/1 106/25/1 107/17/1 108/14/1
f 109/11/1 110/12/1 111/6/1 112/5/1
f 113/23/1 114/24/1 115/14/1 116/13/1
f 117/24/1 118/25/1 119/17/1 120/14/1
f 121/11/1 122/12/1 123/6/1 124/5/1
f 125/23/1 126/24/1 127/14/1 128/13/1
f 129/24/1 130/25/1 131/17/1 132/14/1
f 133/11/1 134/12/1 135/6/1 136/5/1
f 137/23/1 138/24/1 139/14/1 140/13/1
f 141/24/1 142/25/1 143/17/1 144/14/1
f 145/11/1 146/12/1 147/6/1 148/5/1
f 149/23/1 150/24/1 151/14/1 152/13/1
f 153/24/1 154/25/1 155/17/1 156/14/1
f 157/11/1 158/12/1 159/6/1 160/5/1
f 161/23/1 162/24/1 163/14/1 164/13/1
f 165/24/1 166/25/1 167/17/1 168/14/1
f 169/11/1 170/12/1 171/6/1 172/5/1
f 173/23/1 174/24/1 175/14/1 176/13/1
f 177/24/1 178/25/1 179/17/1 180/14/1
f 181/11/1 182/12/1 183/6/1 184/5/1
f 185/23/1 186/24/1 187/14/1 188/13/1
f 189/24/1 190/25/1 191/17/1 192/14/1

