# Tiled2Unity generated file. Do not modify by hand.
# Wavefront file for 'Mapa_mesh_0106.obj'

# Vertices (Count = 44)
v -9 -5 0
v -10 -5 0
v -10 -4 0
v -9 -4 0
v -12 -5 0
v -13 -5 0
v -13 -4 0
v -12 -4 0
v -13 -5 0
v -14 -5 0
v -14 -4 0
v -13 -4 0
v -14 -5 0
v -15 -5 0
v -15 -4 0
v -14 -4 0
v -3 -7 0
v -4 -7 0
v -4 -6 0
v -3 -6 0
v -8 -7 0
v -9 -7 0
v -9 -6 0
v -8 -6 0
v -13 -7 0
v -14 -7 0
v -14 -6 0
v -13 -6 0
v -14 -7 0
v -15 -7 0
v -15 -6 0
v -14 -6 0
v -6 -15 0
v -7 -15 0
v -7 -14 0
v -6 -14 0
v -7 -15 0
v -8 -15 0
v -8 -14 0
v -7 -14 0
v -2 -16 0
v -3 -16 0
v -3 -15 0
v -2 -15 0

# Texture cooridinates (Count = 26)
vt 0 0.9285714
vt 0.0625 0.9285714
vt 0.0625 1
vt 0 1
vt 0.0625 0.8571429
vt 0.125 0.8571429
vt 0.125 0.9285714
vt 0.1875 0.8571429
vt 0.1875 0.9285714
vt 0.25 0.8571429
vt 0.3125 0.8571429
vt 0.3125 0.9285714
vt 0.25 0.9285714
vt 0.1875 1
vt 0.125 1
vt 0.0625 0.2857143
vt 0.125 0.2857143
vt 0.125 0.3571429
vt 0.0625 0.3571429
vt 0 0.2857143
vt 0 0.3571429
vt 0.0625 0.4285714
vt 0 0.4285714
vt 0 0.8571429
vt 0.375 0.8571429
vt 0.375 0.9285714

# Normal
vn 0 0 -1

# Mesh description
g Mapa_mesh_0106

# Faces
f 1/1/1 2/2/1 3/3/1 4/4/1
f 5/5/1 6/6/1 7/7/1 8/2/1
f 9/6/1 10/8/1 11/9/1 12/7/1
f 13/10/1 14/11/1 15/12/1 16/13/1
f 17/7/1 18/9/1 19/14/1 20/15/1
f 21/16/1 22/17/1 23/18/1 24/19/1
f 25/20/1 26/16/1 27/19/1 28/21/1
f 29/21/1 30/19/1 31/22/1 32/23/1
f 33/24/1 34/5/1 35/2/1 36/1/1
f 37/11/1 38/25/1 39/26/1 40/12/1
f 41/7/1 42/9/1 43/14/1 44/15/1

