# Tiled2Unity generated file. Do not modify by hand.
# Wavefront file for 'Mapa_mesh_0029.obj'

# Vertices (Count = 260)
v -10 -1 0
v -11 -1 0
v -11 0 0
v -10 0 0
v -11 -1 0
v -12 -1 0
v -12 0 0
v -11 0 0
v -12 -1 0
v -13 -1 0
v -13 0 0
v -12 0 0
v -13 -1 0
v -14 -1 0
v -14 0 0
v -13 0 0
v -10 -2 0
v -11 -2 0
v -11 -1 0
v -10 -1 0
v -11 -2 0
v -12 -2 0
v -12 -1 0
v -11 -1 0
v -12 -2 0
v -13 -2 0
v -13 -1 0
v -12 -1 0
v -13 -2 0
v -14 -2 0
v -14 -1 0
v -13 -1 0
v -10 -3 0
v -11 -3 0
v -11 -2 0
v -10 -2 0
v -11 -3 0
v -12 -3 0
v -12 -2 0
v -11 -2 0
v -12 -3 0
v -13 -3 0
v -13 -2 0
v -12 -2 0
v -13 -3 0
v -14 -3 0
v -14 -2 0
v -13 -2 0
v -10 -4 0
v -11 -4 0
v -11 -3 0
v -10 -3 0
v -11 -4 0
v -12 -4 0
v -12 -3 0
v -11 -3 0
v -12 -4 0
v -13 -4 0
v -13 -3 0
v -12 -3 0
v -13 -4 0
v -14 -4 0
v -14 -3 0
v -13 -3 0
v -1 -5 0
v -2 -5 0
v -2 -4 0
v -1 -4 0
v -10 -5 0
v -11 -5 0
v -11 -4 0
v -10 -4 0
v -11 -5 0
v -12 -5 0
v -12 -4 0
v -11 -4 0
v -12 -5 0
v -13 -5 0
v -13 -4 0
v -12 -4 0
v -13 -5 0
v -14 -5 0
v -14 -4 0
v -13 -4 0
v -1 -6 0
v -2 -6 0
v -2 -5 0
v -1 -5 0
v -10 -6 0
v -11 -6 0
v -11 -5 0
v -10 -5 0
v -11 -6 0
v -12 -6 0
v -12 -5 0
v -11 -5 0
v -12 -6 0
v -13 -6 0
v -13 -5 0
v -12 -5 0
v -13 -6 0
v -14 -6 0
v -14 -5 0
v -13 -5 0
v -1 -7 0
v -2 -7 0
v -2 -6 0
v -1 -6 0
v -5 -7 0
v -6 -7 0
v -6 -6 0
v -5 -6 0
v -10 -7 0
v -11 -7 0
v -11 -6 0
v -10 -6 0
v -11 -7 0
v -12 -7 0
v -12 -6 0
v -11 -6 0
v -12 -7 0
v -13 -7 0
v -13 -6 0
v -12 -6 0
v -13 -7 0
v -14 -7 0
v -14 -6 0
v -13 -6 0
v -1 -8 0
v -2 -8 0
v -2 -7 0
v -1 -7 0
v -5 -8 0
v -6 -8 0
v -6 -7 0
v -5 -7 0
v -10 -8 0
v -11 -8 0
v -11 -7 0
v -10 -7 0
v -11 -8 0
v -12 -8 0
v -12 -7 0
v -11 -7 0
v -12 -8 0
v -13 -8 0
v -13 -7 0
v -12 -7 0
v -13 -8 0
v -14 -8 0
v -14 -7 0
v -13 -7 0
v -1 -9 0
v -2 -9 0
v -2 -8 0
v -1 -8 0
v -5 -9 0
v -6 -9 0
v -6 -8 0
v -5 -8 0
v -10 -9 0
v -11 -9 0
v -11 -8 0
v -10 -8 0
v -11 -9 0
v -12 -9 0
v -12 -8 0
v -11 -8 0
v -12 -9 0
v -13 -9 0
v -13 -8 0
v -12 -8 0
v -13 -9 0
v -14 -9 0
v -14 -8 0
v -13 -8 0
v -1 -10 0
v -2 -10 0
v -2 -9 0
v -1 -9 0
v -10 -10 0
v -11 -10 0
v -11 -9 0
v -10 -9 0
v -11 -10 0
v -12 -10 0
v -12 -9 0
v -11 -9 0
v -12 -10 0
v -13 -10 0
v -13 -9 0
v -12 -9 0
v -13 -10 0
v -14 -10 0
v -14 -9 0
v -13 -9 0
v -10 -11 0
v -11 -11 0
v -11 -10 0
v -10 -10 0
v -11 -11 0
v -12 -11 0
v -12 -10 0
v -11 -10 0
v -12 -11 0
v -13 -11 0
v -13 -10 0
v -12 -10 0
v -13 -11 0
v -14 -11 0
v -14 -10 0
v -13 -10 0
v -10 -12 0
v -11 -12 0
v -11 -11 0
v -10 -11 0
v -11 -12 0
v -12 -12 0
v -12 -11 0
v -11 -11 0
v -12 -12 0
v -13 -12 0
v -13 -11 0
v -12 -11 0
v -13 -12 0
v -14 -12 0
v -14 -11 0
v -13 -11 0
v -10 -13 0
v -11 -13 0
v -11 -12 0
v -10 -12 0
v -11 -13 0
v -12 -13 0
v -12 -12 0
v -11 -12 0
v -12 -13 0
v -13 -13 0
v -13 -12 0
v -12 -12 0
v -13 -13 0
v -14 -13 0
v -14 -12 0
v -13 -12 0
v -10 -14 0
v -11 -14 0
v -11 -13 0
v -10 -13 0
v -11 -14 0
v -12 -14 0
v -12 -13 0
v -11 -13 0
v -12 -14 0
v -13 -14 0
v -13 -13 0
v -12 -13 0
v -13 -14 0
v -14 -14 0
v -14 -13 0
v -13 -13 0

# Texture cooridinates (Count = 15)
vt 0.625 0.6428571
vt 0.6875 0.6428571
vt 0.6875 0.7142857
vt 0.625 0.7142857
vt 0.75 0.6428571
vt 0.75 0.7142857
vt 0.8125 0.6428571
vt 0.8125 0.7142857
vt 0.625 0.5714285
vt 0.6875 0.5714285
vt 0.75 0.5714285
vt 0.8125 0.5714285
vt 0.875 0.6428571
vt 0.875 0.7142857
vt 0.875 0.5714285

# Normal
vn 0 0 -1

# Mesh description
g Mapa_mesh_0029

# Faces
f 1/1/1 2/2/1 3/3/1 4/4/1
f 5/2/1 6/5/1 7/6/1 8/3/1
f 9/2/1 10/5/1 11/6/1 12/3/1
f 13/5/1 14/7/1 15/8/1 16/6/1
f 17/9/1 18/10/1 19/2/1 20/1/1
f 21/10/1 22/11/1 23/5/1 24/2/1
f 25/10/1 26/11/1 27/5/1 28/2/1
f 29/11/1 30/12/1 31/7/1 32/5/1
f 33/9/1 34/10/1 35/2/1 36/1/1
f 37/10/1 38/11/1 39/5/1 40/2/1
f 41/10/1 42/11/1 43/5/1 44/2/1
f 45/11/1 46/12/1 47/7/1 48/5/1
f 49/9/1 50/10/1 51/2/1 52/1/1
f 53/10/1 54/11/1 55/5/1 56/2/1
f 57/10/1 58/11/1 59/5/1 60/2/1
f 61/11/1 62/12/1 63/7/1 64/5/1
f 65/7/1 66/13/1 67/14/1 68/8/1
f 69/9/1 70/10/1 71/2/1 72/1/1
f 73/10/1 74/11/1 75/5/1 76/2/1
f 77/10/1 78/11/1 79/5/1 80/2/1
f 81/11/1 82/12/1 83/7/1 84/5/1
f 85/12/1 86/15/1 87/13/1 88/7/1
f 89/9/1 90/10/1 91/2/1 92/1/1
f 93/10/1 94/11/1 95/5/1 96/2/1
f 97/10/1 98/11/1 99/5/1 100/2/1
f 101/11/1 102/12/1 103/7/1 104/5/1
f 105/12/1 106/15/1 107/13/1 108/7/1
f 109/7/1 110/13/1 111/14/1 112/8/1
f 113/9/1 114/10/1 115/2/1 116/1/1
f 117/10/1 118/11/1 119/5/1 120/2/1
f 121/10/1 122/11/1 123/5/1 124/2/1
f 125/11/1 126/12/1 127/7/1 128/5/1
f 129/12/1 130/15/1 131/13/1 132/7/1
f 133/12/1 134/15/1 135/13/1 136/7/1
f 137/9/1 138/10/1 139/2/1 140/1/1
f 141/10/1 142/11/1 143/5/1 144/2/1
f 145/10/1 146/11/1 147/5/1 148/2/1
f 149/11/1 150/12/1 151/7/1 152/5/1
f 153/12/1 154/15/1 155/13/1 156/7/1
f 157/12/1 158/15/1 159/13/1 160/7/1
f 161/9/1 162/10/1 163/2/1 164/1/1
f 165/10/1 166/11/1 167/5/1 168/2/1
f 169/10/1 170/11/1 171/5/1 172/2/1
f 173/11/1 174/12/1 175/7/1 176/5/1
f 177/12/1 178/15/1 179/13/1 180/7/1
f 181/9/1 182/10/1 183/2/1 184/1/1
f 185/10/1 186/11/1 187/5/1 188/2/1
f 189/10/1 190/11/1 191/5/1 192/2/1
f 193/11/1 194/12/1 195/7/1 196/5/1
f 197/9/1 198/10/1 199/2/1 200/1/1
f 201/10/1 202/11/1 203/5/1 204/2/1
f 205/10/1 206/11/1 207/5/1 208/2/1
f 209/11/1 210/12/1 211/7/1 212/5/1
f 213/9/1 214/10/1 215/2/1 216/1/1
f 217/10/1 218/11/1 219/5/1 220/2/1
f 221/10/1 222/11/1 223/5/1 224/2/1
f 225/11/1 226/12/1 227/7/1 228/5/1
f 229/9/1 230/10/1 231/2/1 232/1/1
f 233/10/1 234/11/1 235/5/1 236/2/1
f 237/10/1 238/11/1 239/5/1 240/2/1
f 241/11/1 242/12/1 243/7/1 244/5/1
f 245/9/1 246/10/1 247/2/1 248/1/1
f 249/10/1 250/11/1 251/5/1 252/2/1
f 253/10/1 254/11/1 255/5/1 256/2/1
f 257/11/1 258/12/1 259/7/1 260/5/1

