# Tiled2Unity generated file. Do not modify by hand.
# Wavefront file for 'Mapa_mesh_0046.obj'

# Vertices (Count = 172)
v -8 -8 0
v -9 -8 0
v -9 -7 0
v -8 -7 0
v -9 -8 0
v -10 -8 0
v -10 -7 0
v -9 -7 0
v -10 -8 0
v -11 -8 0
v -11 -7 0
v -10 -7 0
v -11 -8 0
v -12 -8 0
v -12 -7 0
v -11 -7 0
v -8 -9 0
v -9 -9 0
v -9 -8 0
v -8 -8 0
v -9 -9 0
v -10 -9 0
v -10 -8 0
v -9 -8 0
v -10 -9 0
v -11 -9 0
v -11 -8 0
v -10 -8 0
v -11 -9 0
v -12 -9 0
v -12 -8 0
v -11 -8 0
v -8 -10 0
v -9 -10 0
v -9 -9 0
v -8 -9 0
v -9 -10 0
v -10 -10 0
v -10 -9 0
v -9 -9 0
v -10 -10 0
v -11 -10 0
v -11 -9 0
v -10 -9 0
v -11 -10 0
v -12 -10 0
v -12 -9 0
v -11 -9 0
v -12 -10 0
v -13 -10 0
v -13 -9 0
v -12 -9 0
v -13 -10 0
v -14 -10 0
v -14 -9 0
v -13 -9 0
v -14 -10 0
v -15 -10 0
v -15 -9 0
v -14 -9 0
v -15 -10 0
v -16 -10 0
v -16 -9 0
v -15 -9 0
v -8 -11 0
v -9 -11 0
v -9 -10 0
v -8 -10 0
v -9 -11 0
v -10 -11 0
v -10 -10 0
v -9 -10 0
v -10 -11 0
v -11 -11 0
v -11 -10 0
v -10 -10 0
v -11 -11 0
v -12 -11 0
v -12 -10 0
v -11 -10 0
v -8 -12 0
v -9 -12 0
v -9 -11 0
v -8 -11 0
v -9 -12 0
v -10 -12 0
v -10 -11 0
v -9 -11 0
v -10 -12 0
v -11 -12 0
v -11 -11 0
v -10 -11 0
v -11 -12 0
v -12 -12 0
v -12 -11 0
v -11 -11 0
v -8 -13 0
v -9 -13 0
v -9 -12 0
v -8 -12 0
v -9 -13 0
v -10 -13 0
v -10 -12 0
v -9 -12 0
v -10 -13 0
v -11 -13 0
v -11 -12 0
v -10 -12 0
v -11 -13 0
v -12 -13 0
v -12 -12 0
v -11 -12 0
v -8 -14 0
v -9 -14 0
v -9 -13 0
v -8 -13 0
v -9 -14 0
v -10 -14 0
v -10 -13 0
v -9 -13 0
v -10 -14 0
v -11 -14 0
v -11 -13 0
v -10 -13 0
v -11 -14 0
v -12 -14 0
v -12 -13 0
v -11 -13 0
v -12 -14 0
v -13 -14 0
v -13 -13 0
v -12 -13 0
v -8 -15 0
v -9 -15 0
v -9 -14 0
v -8 -14 0
v -9 -15 0
v -10 -15 0
v -10 -14 0
v -9 -14 0
v -10 -15 0
v -11 -15 0
v -11 -14 0
v -10 -14 0
v -11 -15 0
v -12 -15 0
v -12 -14 0
v -11 -14 0
v -12 -15 0
v -13 -15 0
v -13 -14 0
v -12 -14 0
v -8 -16 0
v -9 -16 0
v -9 -15 0
v -8 -15 0
v -9 -16 0
v -10 -16 0
v -10 -15 0
v -9 -15 0
v -10 -16 0
v -11 -16 0
v -11 -15 0
v -10 -15 0
v -11 -16 0
v -12 -16 0
v -12 -15 0
v -11 -15 0
v -12 -16 0
v -13 -16 0
v -13 -15 0
v -12 -15 0

# Texture cooridinates (Count = 27)
vt 0.125 0.7142857
vt 0.1875 0.7142857
vt 0.1875 0.7857143
vt 0.125 0.7857143
vt 0.25 0.7142857
vt 0.25 0.7857143
vt 0.125 0.5
vt 0.1875 0.5
vt 0.1875 0.5714285
vt 0.125 0.5714285
vt 0.25 0.5
vt 0.25 0.5714285
vt 0.1875 0.6428571
vt 0.25 0.6428571
vt 0.125 0.4285714
vt 0.1875 0.4285714
vt 0.25 0.4285714
vt 0.3125 0.7142857
vt 0.375 0.7142857
vt 0.375 0.7857143
vt 0.3125 0.7857143
vt 0.1875 0.8571429
vt 0.125 0.8571429
vt 0.25 0.8571429
vt 0.3125 0.6428571
vt 0.375 0.6428571
vt 0.125 0.6428571

# Normal
vn 0 0 -1

# Mesh description
g Mapa_mesh_0046

# Faces
f 1/1/1 2/2/1 3/3/1 4/4/1
f 5/1/1 6/2/1 7/3/1 8/4/1
f 9/1/1 10/2/1 11/3/1 12/4/1
f 13/2/1 14/5/1 15/6/1 16/3/1
f 17/7/1 18/8/1 19/9/1 20/10/1
f 21/7/1 22/8/1 23/9/1 24/10/1
f 25/8/1 26/11/1 27/12/1 28/9/1
f 29/13/1 30/14/1 31/5/1 32/2/1
f 33/15/1 34/16/1 35/8/1 36/7/1
f 37/15/1 38/16/1 39/8/1 40/7/1
f 41/16/1 42/17/1 43/11/1 44/8/1
f 45/18/1 46/19/1 47/20/1 48/21/1
f 49/4/1 50/3/1 51/22/1 52/23/1
f 53/4/1 54/3/1 55/22/1 56/23/1
f 57/4/1 58/3/1 59/22/1 60/23/1
f 61/3/1 62/6/1 63/24/1 64/22/1
f 65/15/1 66/16/1 67/8/1 68/7/1
f 69/15/1 70/16/1 71/8/1 72/7/1
f 73/16/1 74/17/1 75/11/1 76/8/1
f 77/13/1 78/14/1 79/5/1 80/2/1
f 81/15/1 82/16/1 83/8/1 84/7/1
f 85/15/1 86/16/1 87/8/1 88/7/1
f 89/16/1 90/17/1 91/11/1 92/8/1
f 93/13/1 94/14/1 95/5/1 96/2/1
f 97/15/1 98/16/1 99/8/1 100/7/1
f 101/15/1 102/16/1 103/8/1 104/7/1
f 105/16/1 106/17/1 107/11/1 108/8/1
f 109/13/1 110/14/1 111/5/1 112/2/1
f 113/15/1 114/16/1 115/8/1 116/7/1
f 117/15/1 118/16/1 119/8/1 120/7/1
f 121/16/1 122/17/1 123/11/1 124/8/1
f 125/25/1 126/26/1 127/19/1 128/18/1
f 129/2/1 130/5/1 131/6/1 132/3/1
f 133/15/1 134/16/1 135/8/1 136/7/1
f 137/15/1 138/16/1 139/8/1 140/7/1
f 141/16/1 142/17/1 143/11/1 144/8/1
f 145/27/1 146/13/1 147/2/1 148/1/1
f 149/13/1 150/14/1 151/5/1 152/2/1
f 153/15/1 154/16/1 155/8/1 156/7/1
f 157/15/1 158/16/1 159/8/1 160/7/1
f 161/16/1 162/17/1 163/11/1 164/8/1
f 165/27/1 166/13/1 167/2/1 168/1/1
f 169/13/1 170/14/1 171/5/1 172/2/1

