# Tiled2Unity generated file. Do not modify by hand.
# Wavefront file for 'Mapa_mesh_0114.obj'

# Vertices (Count = 24)
v -11 -1 0
v -12 -1 0
v -12 0 0
v -11 0 0
v -13 -1 0
v -14 -1 0
v -14 0 0
v -13 0 0
v -14 -1 0
v -15 -1 0
v -15 0 0
v -14 0 0
v -15 -1 0
v -16 -1 0
v -16 0 0
v -15 0 0
v -15 -3 0
v -16 -3 0
v -16 -2 0
v -15 -2 0
v -13 -4 0
v -14 -4 0
v -14 -3 0
v -13 -3 0

# Texture cooridinates (Count = 18)
vt 0.0625 0.2857143
vt 0.125 0.2857143
vt 0.125 0.3571429
vt 0.0625 0.3571429
vt 0 0.9285714
vt 0.0625 0.9285714
vt 0.0625 1
vt 0 1
vt 0 0.8571429
vt 0.0625 0.8571429
vt 0.125 0.8571429
vt 0.1875 0.8571429
vt 0.1875 0.9285714
vt 0.125 0.9285714
vt 0 0.1428571
vt 0.0625 0.1428571
vt 0.0625 0.2142857
vt 0 0.2142857

# Normal
vn 0 0 -1

# Mesh description
g Mapa_mesh_0114

# Faces
f 1/1/1 2/2/1 3/3/1 4/4/1
f 5/5/1 6/6/1 7/7/1 8/8/1
f 9/9/1 10/10/1 11/6/1 12/5/1
f 13/11/1 14/12/1 15/13/1 16/14/1
f 17/1/1 18/2/1 19/3/1 20/4/1
f 21/15/1 22/16/1 23/17/1 24/18/1

