# Tiled2Unity generated file. Do not modify by hand.
# Wavefront file for 'Mapa_mesh_0103.obj'

# Vertices (Count = 60)
v -10 -1 0
v -11 -1 0
v -11 0 0
v -10 0 0
v -10 -3 0
v -11 -3 0
v -11 -2 0
v -10 -2 0
v -11 -3 0
v -12 -3 0
v -12 -2 0
v -11 -2 0
v -12 -3 0
v -13 -3 0
v -13 -2 0
v -12 -2 0
v -13 -3 0
v -14 -3 0
v -14 -2 0
v -13 -2 0
v -15 -3 0
v -16 -3 0
v -16 -2 0
v -15 -2 0
v -8 -5 0
v -9 -5 0
v -9 -4 0
v -8 -4 0
v -15 -5 0
v -16 -5 0
v -16 -4 0
v -15 -4 0
v -5 -6 0
v -6 -6 0
v -6 -5 0
v -5 -5 0
v -7 -9 0
v -8 -9 0
v -8 -8 0
v -7 -8 0
v -5 -11 0
v -6 -11 0
v -6 -10 0
v -5 -10 0
v -6 -11 0
v -7 -11 0
v -7 -10 0
v -6 -10 0
v -7 -13 0
v -8 -13 0
v -8 -12 0
v -7 -12 0
v -2 -14 0
v -3 -14 0
v -3 -13 0
v -2 -13 0
v -7 -16 0
v -8 -16 0
v -8 -15 0
v -7 -15 0

# Texture cooridinates (Count = 30)
vt 0.4375 0.9285714
vt 0.5 0.9285714
vt 0.5 1
vt 0.4375 1
vt 0.375 0.8571429
vt 0.4375 0.8571429
vt 0.375 0.9285714
vt 0.5 0.8571429
vt 0.5625 0.8571429
vt 0.625 0.8571429
vt 0.625 0.9285714
vt 0.5625 0.9285714
vt 0.0625 0.8571429
vt 0.125 0.8571429
vt 0.125 0.9285714
vt 0.0625 0.9285714
vt 0.0625 0.2857143
vt 0.125 0.2857143
vt 0.125 0.3571429
vt 0.0625 0.3571429
vt 0 0.2857143
vt 0 0.3571429
vt 0 0.8571429
vt 0 0.9285714
vt 0.0625 1
vt 0 1
vt 0 0.1428571
vt 0.0625 0.1428571
vt 0.0625 0.2142857
vt 0 0.2142857

# Normal
vn 0 0 -1

# Mesh description
g Mapa_mesh_0103

# Faces
f 1/1/1 2/2/1 3/3/1 4/4/1
f 5/5/1 6/6/1 7/1/1 8/7/1
f 9/6/1 10/8/1 11/2/1 12/1/1
f 13/9/1 14/10/1 15/11/1 16/12/1
f 17/1/1 18/2/1 19/3/1 20/4/1
f 21/13/1 22/14/1 23/15/1 24/16/1
f 25/17/1 26/18/1 27/19/1 28/20/1
f 29/17/1 30/18/1 31/19/1 32/20/1
f 33/1/1 34/2/1 35/3/1 36/4/1
f 37/21/1 38/17/1 39/20/1 40/22/1
f 41/23/1 42/13/1 43/16/1 44/24/1
f 45/9/1 46/10/1 47/11/1 48/12/1
f 49/17/1 50/18/1 51/19/1 52/20/1
f 53/24/1 54/16/1 55/25/1 56/26/1
f 57/27/1 58/28/1 59/29/1 60/30/1

