# Tiled2Unity generated file. Do not modify by hand.
# Wavefront file for 'Mapa_mesh_0099.obj'

# Vertices (Count = 12)
v -13 -9 0
v -14 -9 0
v -14 -8 0
v -13 -8 0
v -11 -12 0
v -12 -12 0
v -12 -11 0
v -11 -11 0
v -12 -15 0
v -13 -15 0
v -13 -14 0
v -12 -14 0

# Texture cooridinates (Count = 10)
vt 0.125 0.9285714
vt 0.1875 0.9285714
vt 0.1875 1
vt 0.125 1
vt 0 0.2857143
vt 0.0625 0.2857143
vt 0.0625 0.3571429
vt 0 0.3571429
vt 0.125 0.2857143
vt 0.125 0.3571429

# Normal
vn 0 0 -1

# Mesh description
g Mapa_mesh_0099

# Faces
f 1/1/1 2/2/1 3/3/1 4/4/1
f 5/5/1 6/6/1 7/7/1 8/8/1
f 9/6/1 10/9/1 11/10/1 12/7/1

